<?xml version="1.0" encoding="UTF-8"?>
<svg id="Layer_1" xmlns="http://www.w3.org/2000/svg" xmlns:xlink="http://www.w3.org/1999/xlink" version="1.1" viewBox="0 0 2475 1650">
  <!-- Generator: Adobe Illustrator 29.2.1, SVG Export Plug-In . SVG Version: 2.1.0 Build 116)  -->
  <defs>
    <style>
      .st0 {
        fill: url(#linear-gradient2);
      }

      .st1 {
        fill: url(#linear-gradient1);
      }

      .st2 {
        fill: url(#linear-gradient9);
      }

      .st3 {
        fill: url(#linear-gradient3);
      }

      .st4 {
        fill: url(#linear-gradient6);
      }

      .st5 {
        fill: url(#linear-gradient8);
      }

      .st6 {
        fill: url(#linear-gradient7);
      }

      .st7 {
        fill: url(#linear-gradient5);
      }

      .st8 {
        fill: url(#linear-gradient4);
      }

      .st9 {
        fill: #91bafa;
      }

      .st10 {
        fill: url(#linear-gradient31);
      }

      .st11 {
        fill: url(#linear-gradient30);
      }

      .st12 {
        fill: url(#linear-gradient38);
      }

      .st13 {
        fill: url(#linear-gradient32);
      }

      .st14 {
        fill: url(#linear-gradient61);
      }

      .st15 {
        fill: url(#linear-gradient60);
      }

      .st16 {
        fill: url(#linear-gradient62);
      }

      .st17 {
        fill: url(#linear-gradient65);
      }

      .st18 {
        fill: url(#linear-gradient67);
      }

      .st19 {
        fill: url(#linear-gradient64);
      }

      .st20 {
        fill: url(#linear-gradient63);
      }

      .st21 {
        fill: url(#linear-gradient66);
      }

      .st22 {
        fill: url(#linear-gradient39);
      }

      .st23 {
        fill: url(#linear-gradient34);
      }

      .st24 {
        fill: url(#linear-gradient37);
      }

      .st25 {
        fill: url(#linear-gradient35);
      }

      .st26 {
        fill: url(#linear-gradient33);
      }

      .st27 {
        fill: url(#linear-gradient36);
      }

      .st28 {
        fill: url(#linear-gradient40);
      }

      .st29 {
        fill: url(#linear-gradient41);
      }

      .st30 {
        fill: url(#linear-gradient42);
      }

      .st31 {
        fill: url(#linear-gradient46);
      }

      .st32 {
        fill: url(#linear-gradient48);
      }

      .st33 {
        fill: url(#linear-gradient43);
      }

      .st34 {
        fill: url(#linear-gradient44);
      }

      .st35 {
        fill: url(#linear-gradient47);
      }

      .st36 {
        fill: url(#linear-gradient45);
      }

      .st37 {
        fill: url(#linear-gradient49);
      }

      .st38 {
        fill: url(#linear-gradient50);
      }

      .st39 {
        fill: url(#linear-gradient51);
      }

      .st40 {
        fill: url(#linear-gradient52);
      }

      .st41 {
        fill: url(#linear-gradient59);
      }

      .st42 {
        fill: url(#linear-gradient53);
      }

      .st43 {
        fill: url(#linear-gradient56);
      }

      .st44 {
        fill: url(#linear-gradient54);
      }

      .st45 {
        fill: url(#linear-gradient57);
      }

      .st46 {
        fill: url(#linear-gradient55);
      }

      .st47 {
        fill: url(#linear-gradient58);
      }

      .st48 {
        fill: url(#linear-gradient28);
      }

      .st49 {
        fill: url(#linear-gradient29);
      }

      .st50 {
        fill: url(#linear-gradient18);
      }

      .st51 {
        fill: url(#linear-gradient13);
      }

      .st52 {
        fill: url(#linear-gradient12);
      }

      .st53 {
        fill: url(#linear-gradient15);
      }

      .st54 {
        fill: url(#linear-gradient16);
      }

      .st55 {
        fill: url(#linear-gradient11);
      }

      .st56 {
        fill: url(#linear-gradient10);
      }

      .st57 {
        fill: url(#linear-gradient17);
      }

      .st58 {
        fill: url(#linear-gradient14);
      }

      .st59 {
        fill: url(#linear-gradient19);
      }

      .st60 {
        fill: url(#linear-gradient23);
      }

      .st61 {
        fill: url(#linear-gradient22);
      }

      .st62 {
        fill: url(#linear-gradient24);
      }

      .st63 {
        fill: url(#linear-gradient25);
      }

      .st64 {
        fill: url(#linear-gradient21);
      }

      .st65 {
        fill: url(#linear-gradient20);
      }

      .st66 {
        fill: url(#linear-gradient27);
      }

      .st67 {
        fill: url(#linear-gradient26);
      }

      .st68 {
        fill: url(#linear-gradient);
      }

      .st69 {
        fill: #7d9cf4;
      }

      .st70 {
        fill: #91faf2;
      }

      .st71 {
        fill: #fa9193;
      }

      .st72 {
        fill: #f4827d;
      }

      .st73 {
        fill: #fbbdbd;
      }

      .st74 {
        fill: #fa91a4;
      }

      .st75 {
        fill: #fbbdc7;
      }

      .st76 {
        fill: #f47d84;
      }

      .st77 {
        fill: #7deef4;
      }
    </style>
    <linearGradient id="linear-gradient" x1="136.6" y1="845.8" x2="2332.7" y2="845.8" gradientTransform="translate(0 1650) scale(1 -1)" gradientUnits="userSpaceOnUse">
      <stop offset="0" stop-color="#fedade"/>
      <stop offset="1" stop-color="#fde9ec"/>
    </linearGradient>
    <linearGradient id="linear-gradient1" x1="857.5" y1="572.7" x2="1148.5" y2="869.7" gradientTransform="translate(0 1650) scale(1 -1)" gradientUnits="userSpaceOnUse">
      <stop offset="0" stop-color="#5d1800"/>
      <stop offset="1" stop-color="#91310f"/>
    </linearGradient>
    <linearGradient id="linear-gradient2" x1="1061.5" y1="964.7" x2="1006" y2="868.7" gradientTransform="translate(0 1650) scale(1 -1)" gradientUnits="userSpaceOnUse">
      <stop offset="0" stop-color="#5d1800"/>
      <stop offset="1" stop-color="#91310f"/>
    </linearGradient>
    <linearGradient id="linear-gradient3" x1="15633.4" y1="221.1" x2="15683.1" y2="534.1" gradientTransform="translate(16821.6 1650) rotate(-180)" gradientUnits="userSpaceOnUse">
      <stop offset="0" stop-color="#cbb823"/>
      <stop offset="1" stop-color="#6d4e24"/>
    </linearGradient>
    <linearGradient id="linear-gradient4" x1="15652.7" y1="219.1" x2="15704.2" y2="543.4" gradientTransform="translate(16821.6 1650) rotate(-180)" gradientUnits="userSpaceOnUse">
      <stop offset="0" stop-color="#cbb823"/>
      <stop offset="1" stop-color="#6d4e24"/>
    </linearGradient>
    <linearGradient id="linear-gradient5" x1="11786.6" y1="209.4" x2="11839.5" y2="541.9" gradientTransform="translate(12995.6 1650) rotate(-180)" gradientUnits="userSpaceOnUse">
      <stop offset="0" stop-color="#3f81fd"/>
      <stop offset="1" stop-color="#d9cf3c"/>
    </linearGradient>
    <linearGradient id="linear-gradient6" x1="1277.2" y1="269.7" x2="1317.7" y2="269.7" gradientTransform="translate(0 1650) scale(1 -1)" gradientUnits="userSpaceOnUse">
      <stop offset="0" stop-color="#ffda8e"/>
      <stop offset="1" stop-color="#fee5b1"/>
    </linearGradient>
    <linearGradient id="linear-gradient7" x1="1221.2" y1="376.8" x2="1393.2" y2="617.9" gradientTransform="translate(0 1650) scale(1 -1)" gradientUnits="userSpaceOnUse">
      <stop offset="0" stop-color="#822b7f"/>
      <stop offset=".2" stop-color="#702568"/>
      <stop offset=".7" stop-color="#4f163e"/>
      <stop offset="1" stop-color="#420e29"/>
    </linearGradient>
    <linearGradient id="linear-gradient8" x1="1248" y1="232.4" x2="1285.9" y2="232.4" gradientTransform="translate(0 1650) scale(1 -1)" gradientUnits="userSpaceOnUse">
      <stop offset="0" stop-color="#ffda8e"/>
      <stop offset="1" stop-color="#fee5b1"/>
    </linearGradient>
    <linearGradient id="linear-gradient9" x1="1159.2" y1="256.7" x2="1168.7" y2="579" gradientTransform="translate(0 1650) scale(1 -1)" gradientUnits="userSpaceOnUse">
      <stop offset="0" stop-color="#5d0039"/>
      <stop offset="1" stop-color="#910f5f"/>
    </linearGradient>
    <linearGradient id="linear-gradient10" x1="1279.3" y1="637.2" x2="850.3" y2="226.1" gradientTransform="translate(0 1650) scale(1 -1)" gradientUnits="userSpaceOnUse">
      <stop offset="0" stop-color="#fec537"/>
      <stop offset="1" stop-color="#ffda8e"/>
    </linearGradient>
    <linearGradient id="linear-gradient11" x1="1479" y1="774.4" x2="1422" y2="638.4" gradientTransform="translate(0 1650) scale(1 -1)" gradientUnits="userSpaceOnUse">
      <stop offset="0" stop-color="#ffda8e"/>
      <stop offset="1" stop-color="#fee5b1"/>
    </linearGradient>
    <linearGradient id="linear-gradient12" x1="1178.6" y1="742.3" x2="749.6" y2="331.3" gradientTransform="translate(0 1650) scale(1 -1)" gradientUnits="userSpaceOnUse">
      <stop offset="0" stop-color="#fec537"/>
      <stop offset="1" stop-color="#ffda8e"/>
    </linearGradient>
    <linearGradient id="linear-gradient13" x1="1237.6" y1="866" x2="1325.5" y2="866" gradientTransform="translate(0 1650) scale(1 -1)" gradientUnits="userSpaceOnUse">
      <stop offset="0" stop-color="#ffda8e"/>
      <stop offset="1" stop-color="#fee5b1"/>
    </linearGradient>
    <linearGradient id="linear-gradient14" x1="1121.3" y1="802.1" x2="692.3" y2="391.1" gradientTransform="translate(0 1650) scale(1 -1)" gradientUnits="userSpaceOnUse">
      <stop offset="0" stop-color="#fec537"/>
      <stop offset="1" stop-color="#ffda8e"/>
    </linearGradient>
    <linearGradient id="linear-gradient15" x1="1081.7" y1="1155.3" x2="1108.7" y2="825.3" gradientTransform="translate(0 1650) scale(1 -1)" gradientUnits="userSpaceOnUse">
      <stop offset="0" stop-color="#e1af3d"/>
      <stop offset="1" stop-color="#e9bc5a"/>
    </linearGradient>
    <linearGradient id="linear-gradient16" x1="1206.1" y1="834.9" x2="1179.1" y2="723.9" gradientTransform="translate(0 1650) scale(1 -1)" gradientUnits="userSpaceOnUse">
      <stop offset="0" stop-color="#ffda8e"/>
      <stop offset="1" stop-color="#fee5b1"/>
    </linearGradient>
    <linearGradient id="linear-gradient17" x1="1424.3" y1="934.7" x2="1254.3" y2="921.7" gradientTransform="translate(0 1650) scale(1 -1)" gradientUnits="userSpaceOnUse">
      <stop offset="0" stop-color="#ffda8e"/>
      <stop offset="1" stop-color="#fee5b1"/>
    </linearGradient>
    <linearGradient id="linear-gradient18" x1="1654.4" y1="2226.7" x2="1785.7" y2="2226.7" gradientTransform="translate(216.5 3309.3) rotate(-14.5) scale(1 -1)" gradientUnits="userSpaceOnUse">
      <stop offset="0" stop-color="#5d0039"/>
      <stop offset="1" stop-color="#910f5f"/>
    </linearGradient>
    <linearGradient id="linear-gradient19" x1="1577.4" y1="2146.6" x2="1665.6" y2="2237.1" gradientTransform="translate(216.5 3309.3) rotate(-14.5) scale(1 -1)" gradientUnits="userSpaceOnUse">
      <stop offset="0" stop-color="#ffda8e"/>
      <stop offset="1" stop-color="#fee5b1"/>
    </linearGradient>
    <linearGradient id="linear-gradient20" x1="11712.4" y1="22.5" x2="11540.1" y2="-24.7" gradientTransform="translate(12919.2 1575.3) rotate(-177.2)" gradientUnits="userSpaceOnUse">
      <stop offset="0" stop-color="#5d1800"/>
      <stop offset="1" stop-color="#91310f"/>
    </linearGradient>
    <linearGradient id="linear-gradient21" x1="11540.4" y1="787.2" x2="11418.2" y2="657.9" gradientTransform="translate(12995.6 1650) rotate(-180)" gradientUnits="userSpaceOnUse">
      <stop offset="0" stop-color="#5d1800"/>
      <stop offset="1" stop-color="#91310f"/>
    </linearGradient>
    <linearGradient id="linear-gradient22" x1="928.8" y1="661.7" x2="1279.2" y2="765.2" gradientTransform="translate(0 1650) scale(1 -1)" gradientUnits="userSpaceOnUse">
      <stop offset="0" stop-color="#e25f40"/>
      <stop offset="1" stop-color="#ff704f"/>
    </linearGradient>
    <linearGradient id="linear-gradient23" x1="1175.6" y1="362" x2="443.6" y2="196.9" gradientTransform="translate(0 1650) scale(1 -1)" gradientUnits="userSpaceOnUse">
      <stop offset="0" stop-color="#e25f40"/>
      <stop offset="1" stop-color="#ff704f"/>
    </linearGradient>
    <linearGradient id="linear-gradient24" x1="1711" y1="612.3" x2="1132" y2="153.3" gradientTransform="translate(0 1650) scale(1 -1)" gradientUnits="userSpaceOnUse">
      <stop offset="0" stop-color="#e25f40"/>
      <stop offset="1" stop-color="#ff704f"/>
    </linearGradient>
    <linearGradient id="linear-gradient25" x1="10179.5" y1="-3700.6" x2="10404.5" y2="-3070.5" gradientTransform="translate(12995.6 1650) rotate(-180)" gradientUnits="userSpaceOnUse">
      <stop offset="0" stop-color="#e25f40"/>
      <stop offset="1" stop-color="#ff704f"/>
    </linearGradient>
    <linearGradient id="linear-gradient26" x1="913.5" y1="234.3" x2="955.5" y2="729.3" gradientTransform="translate(0 1650) scale(1 -1)" gradientUnits="userSpaceOnUse">
      <stop offset="0" stop-color="#e25f40"/>
      <stop offset="1" stop-color="#ff704f"/>
    </linearGradient>
    <linearGradient id="linear-gradient27" x1="590.1" y1="191.4" x2="678.8" y2="126.3" gradientTransform="translate(2296.2 1650) rotate(-180)" gradientUnits="userSpaceOnUse">
      <stop offset="0" stop-color="#00245d"/>
      <stop offset="1" stop-color="#0f4291"/>
    </linearGradient>
    <linearGradient id="linear-gradient28" x1="-736.9" y1="-299.2" x2="359.4" y2="363.3" gradientTransform="translate(2296.2 1650) rotate(-180)" gradientUnits="userSpaceOnUse">
      <stop offset="0" stop-color="#00245d"/>
      <stop offset="1" stop-color="#0f4291"/>
    </linearGradient>
    <linearGradient id="linear-gradient29" x1="527.8" y1="314.5" x2="574.7" y2="265.4" gradientTransform="translate(2296.2 1650) rotate(-180)" gradientUnits="userSpaceOnUse">
      <stop offset="0" stop-color="#00245d"/>
      <stop offset="1" stop-color="#0f4291"/>
    </linearGradient>
    <linearGradient id="linear-gradient30" x1="1828.2" y1="465.4" x2="1856.7" y2="202.9" gradientTransform="translate(0 1650) scale(1 -1)" gradientUnits="userSpaceOnUse">
      <stop offset="0" stop-color="#409ce2"/>
      <stop offset="1" stop-color="#4fb4ff"/>
    </linearGradient>
    <linearGradient id="linear-gradient31" x1="1711.9" y1="270.4" x2="1981.2" y2="270.4" gradientTransform="translate(0 1650) scale(1 -1)" gradientUnits="userSpaceOnUse">
      <stop offset="0" stop-color="#409ce2"/>
      <stop offset="1" stop-color="#4fb4ff"/>
    </linearGradient>
    <linearGradient id="linear-gradient32" x1="446.7" y1="432.2" x2="386.4" y2="360.5" gradientTransform="translate(2296.2 1650) rotate(-180)" gradientUnits="userSpaceOnUse">
      <stop offset="0" stop-color="#ff8ed5"/>
      <stop offset="1" stop-color="#feb1e2"/>
    </linearGradient>
    <linearGradient id="linear-gradient33" x1="304.7" y1="468.5" x2="401.3" y2="129.8" gradientTransform="translate(2296.2 1650) rotate(-180)" gradientUnits="userSpaceOnUse">
      <stop offset="0" stop-color="#fe62ae"/>
      <stop offset="1" stop-color="#ff8ed5"/>
    </linearGradient>
    <linearGradient id="linear-gradient34" x1="1927.3" y1="483.2" x2="1916.3" y2="398.2" gradientTransform="translate(0 1650) scale(1 -1)" gradientUnits="userSpaceOnUse">
      <stop offset="0" stop-color="#ff8ed5"/>
      <stop offset="1" stop-color="#feb1e2"/>
    </linearGradient>
    <linearGradient id="linear-gradient35" x1="1990.1" y1="555.5" x2="1993.1" y2="479.5" gradientTransform="translate(0 1650) scale(1 -1)" gradientUnits="userSpaceOnUse">
      <stop offset="0" stop-color="#ff8ed5"/>
      <stop offset="1" stop-color="#feb1e2"/>
    </linearGradient>
    <linearGradient id="linear-gradient36" x1="168.5" y1="71.5" x2="196.5" y2="162.5" gradientTransform="translate(2296.2 1650) rotate(-180)" gradientUnits="userSpaceOnUse">
      <stop offset="0" stop-color="#ff8ed5"/>
      <stop offset="1" stop-color="#feb1e2"/>
    </linearGradient>
    <linearGradient id="linear-gradient37" x1="308.8" y1="656.8" x2="326.9" y2="553.1" gradientTransform="translate(2296.2 1650) rotate(-180)" gradientUnits="userSpaceOnUse">
      <stop offset="0" stop-color="#00245d"/>
      <stop offset="1" stop-color="#0f4291"/>
    </linearGradient>
    <linearGradient id="linear-gradient38" x1="145.7" y1="78.6" x2="173.7" y2="169.6" gradientTransform="translate(2296.2 1650) rotate(-180)" gradientUnits="userSpaceOnUse">
      <stop offset="0" stop-color="#ff8ed5"/>
      <stop offset="1" stop-color="#feb1e2"/>
    </linearGradient>
    <linearGradient id="linear-gradient39" x1="466" y1="404.3" x2="557.6" y2="404.3" gradientTransform="translate(2296.2 1650) rotate(-180)" gradientUnits="userSpaceOnUse">
      <stop offset="0" stop-color="#00245d"/>
      <stop offset="1" stop-color="#0f4291"/>
    </linearGradient>
    <linearGradient id="linear-gradient40" x1="477.1" y1="364.2" x2="403.8" y2="344.1" gradientTransform="translate(2296.2 1650) rotate(-180)" gradientUnits="userSpaceOnUse">
      <stop offset="0" stop-color="#00245d"/>
      <stop offset="1" stop-color="#0f4291"/>
    </linearGradient>
    <linearGradient id="linear-gradient41" x1="1933.8" y1="458.7" x2="1943.4" y2="458.7" gradientTransform="translate(0 1650) scale(1 -1)" gradientUnits="userSpaceOnUse">
      <stop offset="0" stop-color="#e13d98"/>
      <stop offset="1" stop-color="#e95ab0"/>
    </linearGradient>
    <linearGradient id="linear-gradient42" x1="1975.1" y1="448.3" x2="2004.1" y2="448.3" gradientTransform="translate(0 1650) scale(1 -1)" gradientUnits="userSpaceOnUse">
      <stop offset="0" stop-color="#e13d98"/>
      <stop offset="1" stop-color="#e95ab0"/>
    </linearGradient>
    <linearGradient id="linear-gradient43" x1="2000" y1="411.8" x2="2051.8" y2="411.8" gradientTransform="translate(0 1650) scale(1 -1)" gradientUnits="userSpaceOnUse">
      <stop offset="0" stop-color="#e13d98"/>
      <stop offset="1" stop-color="#e95ab0"/>
    </linearGradient>
    <linearGradient id="linear-gradient44" x1="285" y1="393.6" x2="312.3" y2="393.6" gradientTransform="translate(0 1650) scale(1 -1)" gradientUnits="userSpaceOnUse">
      <stop offset="0" stop-color="#dae5fe"/>
      <stop offset="1" stop-color="#e9f0fd"/>
    </linearGradient>
    <linearGradient id="linear-gradient45" x1="328.9" y1="463.6" x2="367.6" y2="463.6" gradientTransform="translate(0 1650) scale(1 -1)" gradientUnits="userSpaceOnUse">
      <stop offset="0" stop-color="#dae5fe"/>
      <stop offset="1" stop-color="#e9f0fd"/>
    </linearGradient>
    <linearGradient id="linear-gradient46" x1="340.2" y1="358.3" x2="423.7" y2="358.3" gradientTransform="translate(0 1650) scale(1 -1)" gradientUnits="userSpaceOnUse">
      <stop offset="0" stop-color="#dae5fe"/>
      <stop offset="1" stop-color="#e9f0fd"/>
    </linearGradient>
    <linearGradient id="linear-gradient47" x1="275.2" y1="176.1" x2="300.5" y2="334.9" gradientTransform="translate(894.4 1650) rotate(-180)" gradientUnits="userSpaceOnUse">
      <stop offset="0" stop-color="#4047e2"/>
      <stop offset="1" stop-color="#4f58ff"/>
    </linearGradient>
    <linearGradient id="linear-gradient48" x1="285.1" y1="175" x2="311" y2="338" gradientTransform="translate(894.4 1650) rotate(-180)" gradientUnits="userSpaceOnUse">
      <stop offset="0" stop-color="#4047e2"/>
      <stop offset="1" stop-color="#4f58ff"/>
    </linearGradient>
    <linearGradient id="linear-gradient49" x1="265.9" y1="177.6" x2="291.1" y2="336.4" gradientTransform="translate(894.4 1650) rotate(-180)" gradientUnits="userSpaceOnUse">
      <stop offset="0" stop-color="#4047e2"/>
      <stop offset="1" stop-color="#4f58ff"/>
    </linearGradient>
    <linearGradient id="linear-gradient50" x1="156.9" y1="277.2" x2="240" y2="277.2" gradientTransform="translate(894.4 1650) rotate(-180)" gradientUnits="userSpaceOnUse">
      <stop offset="0" stop-color="#ff8f8e"/>
      <stop offset="1" stop-color="#feb1b1"/>
    </linearGradient>
    <linearGradient id="linear-gradient51" x1="-15.5" y1="-593.9" x2="33.5" y2="-419.9" gradientTransform="translate(894.4 1650) rotate(-180)" gradientUnits="userSpaceOnUse">
      <stop offset="0" stop-color="#05005d"/>
      <stop offset="1" stop-color="#160f91"/>
    </linearGradient>
    <linearGradient id="linear-gradient52" x1="903.7" y1="380.1" x2="819.7" y2="318.1" gradientTransform="translate(0 1650) scale(1 -1)" gradientUnits="userSpaceOnUse">
      <stop offset="0" stop-color="#ff8f8e"/>
      <stop offset="1" stop-color="#feb1b1"/>
    </linearGradient>
    <linearGradient id="linear-gradient53" x1="-839.5" y1="-962.5" x2="-1151.6" y2="-1334.5" gradientTransform="translate(894.4 1650) rotate(-180)" gradientUnits="userSpaceOnUse">
      <stop offset="0" stop-color="#fe6c62"/>
      <stop offset="1" stop-color="#ff8f8e"/>
    </linearGradient>
    <linearGradient id="linear-gradient54" x1="-120.2" y1="-564.4" x2="-71.2" y2="-390.4" gradientTransform="translate(894.4 1650) rotate(-180)" gradientUnits="userSpaceOnUse">
      <stop offset="0" stop-color="#05005d"/>
      <stop offset="1" stop-color="#160f91"/>
    </linearGradient>
    <linearGradient id="linear-gradient55" x1="-886.4" y1="-923.2" x2="-1198.4" y2="-1295.2" gradientTransform="translate(894.4 1650) rotate(-180)" gradientUnits="userSpaceOnUse">
      <stop offset="0" stop-color="#fe6c62"/>
      <stop offset="1" stop-color="#ff8f8e"/>
    </linearGradient>
    <linearGradient id="linear-gradient56" x1="673.1" y1="621.2" x2="621.1" y2="501.2" gradientTransform="translate(0 1650) scale(1 -1)" gradientUnits="userSpaceOnUse">
      <stop offset="0" stop-color="#ff8f8e"/>
      <stop offset="1" stop-color="#feb1b1"/>
    </linearGradient>
    <linearGradient id="linear-gradient57" x1="2623.2" y1="-455.2" x2="2621.2" y2="-349.2" gradientTransform="translate(2218.7 3188.7) rotate(-129.9)" gradientUnits="userSpaceOnUse">
      <stop offset="0" stop-color="#ff8f8e"/>
      <stop offset="1" stop-color="#feb1b1"/>
    </linearGradient>
    <linearGradient id="linear-gradient58" x1="2722.7" y1="286.7" x2="2592.9" y2="151.6" gradientTransform="translate(2218.7 3188.7) rotate(-129.9)" gradientUnits="userSpaceOnUse">
      <stop offset="0" stop-color="#05005d"/>
      <stop offset="1" stop-color="#160f91"/>
    </linearGradient>
    <linearGradient id="linear-gradient59" x1="2647.9" y1="-454.7" x2="2645.9" y2="-348.7" gradientTransform="translate(2218.7 3188.7) rotate(-129.9)" gradientUnits="userSpaceOnUse">
      <stop offset="0" stop-color="#ff8f8e"/>
      <stop offset="1" stop-color="#feb1b1"/>
    </linearGradient>
    <linearGradient id="linear-gradient60" x1="650.4" y1="522.6" x2="625.4" y2="456.6" gradientTransform="translate(0 1650) scale(1 -1)" gradientUnits="userSpaceOnUse">
      <stop offset="0" stop-color="#ff8f8e"/>
      <stop offset="1" stop-color="#feb1b1"/>
    </linearGradient>
    <linearGradient id="linear-gradient61" x1="655.3" y1="693.5" x2="553.3" y2="567.5" gradientTransform="translate(0 1650) scale(1 -1)" gradientUnits="userSpaceOnUse">
      <stop offset="0" stop-color="#05005d"/>
      <stop offset="1" stop-color="#160f91"/>
    </linearGradient>
    <linearGradient id="linear-gradient62" x1="250.6" y1="344.9" x2="147" y2="316.5" gradientTransform="translate(818 1575.3) rotate(-177.2)" gradientUnits="userSpaceOnUse">
      <stop offset="0" stop-color="#05005d"/>
      <stop offset="1" stop-color="#160f91"/>
    </linearGradient>
    <linearGradient id="linear-gradient63" x1="662.6" y1="584.8" x2="799.1" y2="413.8" gradientTransform="translate(0 1650) scale(1 -1)" gradientUnits="userSpaceOnUse">
      <stop offset="0" stop-color="#05005d"/>
      <stop offset="1" stop-color="#160f91"/>
    </linearGradient>
    <linearGradient id="linear-gradient64" x1="946" y1="1203.1" x2="1022.4" y2="1203.1" gradientTransform="translate(0 1650) scale(1 -1)" gradientUnits="userSpaceOnUse">
      <stop offset="0" stop-color="#fedade"/>
      <stop offset="1" stop-color="#fde9ec"/>
    </linearGradient>
    <linearGradient id="linear-gradient65" x1="886.9" y1="1203.4" x2="1082.9" y2="1203.4" gradientTransform="translate(0 1650) scale(1 -1)" gradientUnits="userSpaceOnUse">
      <stop offset="0" stop-color="#fedade"/>
      <stop offset="1" stop-color="#fde9ec"/>
    </linearGradient>
    <linearGradient id="linear-gradient66" x1="1238" y1="1305.4" x2="1283.8" y2="1305.4" gradientTransform="translate(0 1650) scale(1 -1)" gradientUnits="userSpaceOnUse">
      <stop offset="0" stop-color="#fedade"/>
      <stop offset="1" stop-color="#fde9ec"/>
    </linearGradient>
    <linearGradient id="linear-gradient67" x1="1204.9" y1="1305.6" x2="1317.7" y2="1305.6" gradientTransform="translate(0 1650) scale(1 -1)" gradientUnits="userSpaceOnUse">
      <stop offset="0" stop-color="#fedade"/>
      <stop offset="1" stop-color="#fde9ec"/>
    </linearGradient>
  </defs>
  <g id="Illustration">
    <g>
      <path class="st68" d="M863.2,1447.4c-48.6,1.4-96.9-9.8-139.9-33.1-25.3-13.8-63.8-24.6-119.8-17.1-117.3,15.7-252.9,88.1-356.5-46.9s-21.5-187.4,86.2-190.2c107.7-2.8,162.2-41.7,150.3-97.5-11.9-55.8-9-71-175.3-153.9-166.3-82.9-262.6-384.7-47-525.9,215.6-141.2,332.9-15.6,359.7-4.5,26.8,11.1,67.2,30.6,99.7-56.5,32.5-87.1,89.8-193.4,283.3-171.3,40,4.6,80.1,6.7,120.3,9.1,36.6,2.2,79,1.5,108.7,27.3,52.7,45.7,45.1,131.7,50.7,195.4,3.3,37.3,12,79.8,55.5,82.6,54.9,3.6,95.5-74.3,127.4-111.4,39.2-45.6,85.4-85.4,138.6-112.4,37.6-19,76.9-32.7,118.1-40.9,256.1-51.1,499.3,25.2,579.2,309.6,79.9,284.4-11.3,437.6-122.4,480.7-111.2,43.1-205.6,115.9,4.3,283.4,209.9,167.6-315.6,231.1-455.7,155.4-140.2-75.8-285.6-36.3-408.4-11.8-85.6,17-321.9,26-456.9,29.9Z"/>
      <g>
        <g>
          <g>
            <path class="st74" d="M522.5,634.4c-27.8-66.4-128.7-267.6-307.2-205.5-2.6.9-2.3,4.7.4,5.2,39.4,7.3,185.2,44.1,302.1,202.8,1.9,2.6,5.9.3,4.7-2.6Z"/>
            <path class="st74" d="M521,638.5c-40.1-37.8-159.6-184.1-318.2-117.3-1.7.7-1.4,3.3.5,3.5,39.2,4.1,233.9,28.8,317,117,2.2,2.3,3.1-1,.8-3.2Z"/>
            <path class="st74" d="M517.2,621.9c-3.8-50-26.2-238.9-147.8-277.9-.9-.3-1.6.7-1.1,1.5,14.7,20.7,121.3,173.4,147,276.7.3,1.2,2,.9,1.9-.3Z"/>
            <path class="st74" d="M529.3,679.2c1.1.6,2.1-.8,1.2-1.7-21.5-21.4-110.5-100.1-223.4-61.3-128,43.9,96.1-5.4,222.2,63Z"/>
            <path class="st74" d="M526.4,640c-.3,3.7-5.6,4.2-6.4.5-13.5-59.3-42.1-222.9,41.1-264.6,98.5-49.3-21.4,70-34.7,264Z"/>
            <path class="st74" d="M520.6,639.6c14-36.4,67.9-149.6,180.1-88.4,1.9,1,1.3,3.9-.9,4-25.2,1.6-109.2,12.5-175.6,86.5-1.6,1.8-4.5,0-3.6-2.2Z"/>
            <path class="st74" d="M523.7,648.8c5.2-22.5,32-67.6,168.5-26.3.8.2.6,1.5-.2,1.4-26.8-2.8-117.5-8.9-161.9,28.8-2.9,2.4-7.2-.2-6.4-3.9Z"/>
          </g>
          <path class="st74" d="M564.2,1265c1.3-3.8,12-488.6-46.2-630.9l46.2,630.9Z"/>
          <g>
            <path class="st74" d="M623.1,793.4c20.8-49.6,96.3-200.1,229.7-153.6,2,.7,1.7,3.5-.3,3.9-29.4,5.5-138.5,33-225.9,151.7-1.4,1.9-4.4.2-3.5-2Z"/>
            <path class="st74" d="M624.2,796.5c30-28.3,119.3-137.7,238-87.7,1.3.5,1,2.5-.4,2.6-29.3,3.1-174.9,21.5-237,87.5-1.6,1.7-2.3-.8-.6-2.4Z"/>
            <path class="st74" d="M627,784.1c2.8-37.4,19.6-178.7,110.5-207.8.7-.2,1.2.5.8,1.1-11,15.5-90.7,129.7-109.9,206.9-.2.9-1.5.7-1.4-.2Z"/>
            <path class="st74" d="M618,827c-.8.4-1.6-.6-.9-1.2,16.1-16,82.6-74.8,167.1-45.9,95.7,32.8-71.9-4-166.1,47.1Z"/>
            <path class="st74" d="M620.2,797.7c.2,2.8,4.2,3.1,4.8.4,10.1-44.4,31.5-166.7-30.8-197.8-73.7-36.8,16,52.4,26,197.4Z"/>
            <path class="st74" d="M624.5,797.3c-10.5-27.2-50.8-111.8-134.7-66.1-1.4.8-1,2.9.7,3,18.9,1.2,81.6,9.3,131.3,64.7,1.2,1.3,3.3,0,2.7-1.6Z"/>
            <path class="st74" d="M622.2,804.2c-3.9-16.8-23.9-50.6-126-19.7-.6.2-.5,1.1.2,1,20.1-2.1,87.9-6.7,121.1,21.5,2.1,1.8,5.4-.2,4.8-2.9Z"/>
          </g>
          <path class="st74" d="M591.9,1265c-1-2.9-8.9-365.4,34.6-471.8l-34.6,471.8Z"/>
          <g>
            <path class="st74" d="M462.7,879.2c-23.8-38.9-105.4-155.1-198.4-96.3-1.4.9-.7,3.2.9,3.3,23.1.3,109.9,7.7,195.2,95.2,1.4,1.4,3.4-.4,2.3-2.2Z"/>
            <path class="st74" d="M462.3,882c-27.3-19.5-112.6-98.9-193.9-39.3-.9.7-.4,2.2.7,2.2,22.6-1.7,135.5-7.4,193.1,39.3,1.5,1.2,1.6-1,0-2.1Z"/>
            <path class="st74" d="M458.2,871.9c-8.3-31.2-44-148.1-117.4-159.5-.5,0-.8.6-.4,1.1,10.8,11.5,89.7,96.3,116.8,158.8.3.7,1.2.3,1-.4Z"/>
            <path class="st74" d="M472,906.8c.7.2,1.1-.7.5-1.2-14.7-11.2-74.6-51.2-133.5-14.4-66.8,41.7,53.5-13.9,133,15.5Z"/>
            <path class="st74" d="M465.6,882.3c.3,2.4-2.6,3.3-3.5,1-14.9-36-51-136.3-9.2-171.7,49.5-41.9-3.5,46.6,12.7,170.7Z"/>
            <path class="st74" d="M462.3,882.7c3.4-24.6,20-102,90.7-75.6,1.2.4,1.2,2.3,0,2.7-14,3.8-60,19.8-88.4,73.9-.7,1.3-2.5.5-2.3-1Z"/>
            <path class="st74" d="M465.1,888.1c.2-14.8,9.8-46.2,91.8-35,.5,0,.5.9,0,.9-15.5,1.2-67.4,7.2-87.8,35.9-1.3,1.8-4.1.6-4.1-1.8Z"/>
          </g>
          <path class="st74" d="M563.4,1273.2c.3-2.6-53.1-310.2-103.3-393.7l103.3,393.7Z"/>
        </g>
        <path class="st74" d="M508.8,1226.8h108.7c7.1,0,12.4,10.7,10.8,22-7,48.8-15.3,98.3-32.3,148.6-3.2,9.3-9.1,15.1-15.7,15.1h-35.5c-6.4,0-12.4-5.7-15.4-14.9-13.7-41.1-26.8-90.2-33.3-145.8-1.5-13,4.6-25,12.7-25Z"/>
      </g>
      <g>
        <g>
          <path class="st1" d="M1170,1025l-246.4,30.7-33-265.1c-1.7-13.9,8.1-26.5,22-28.2l196.2-24.4c13.9-1.7,26.5,8.1,28.2,22l33,265.1Z"/>
          <path class="st0" d="M913.4,762.3h-.9c-13.9,1.8-23.7,14.5-22,28.4l31.7,254.1,51.1-6.4-31.7-254.1c-1.7-13.9-14.4-23.7-28.2-22Z"/>
        </g>
        <g>
          <rect class="st3" x="1158.8" y="1191.4" width="23" height="248.9"/>
          <path class="st8" d="M1069.5,1445.1h201.6v-11.4c0-2-1.6-3.6-3.6-3.6h-194.2c-2.1,0-3.8,1.7-3.8,3.8v11.2Z"/>
          <path class="st7" d="M1031.4,1182.2c0,14.5,11.8,26.3,26.3,26.3h216.8c14.5,0,26.3-11.8,26.3-26.3v-23.8c0-14.5-11.8-26.3-26.3-26.3h-216.8c-14.5,0-26.3,11.8-26.3,26.3v23.8Z"/>
        </g>
        <g>
          <path class="st4" d="M1288.6,1356.5l-10.7,31.1c-1.6,4.7,0,10,4.2,12.7,2.1,1.3,5,2.6,8.9,3.4,5.5,1.3,11.3-1.3,13.9-6.3l12.9-24.2-29.1-16.7Z"/>
          <path class="st6" d="M1184,1076.9s135,23.4,192.9,76.9c57.9,53.5-53.2,224.1-53.2,224.1,0,0-18.2-.1-40.2-19,0,0,65.8-128.3,9.1-165.8-63.8-42.1-137.3-51.6-137.3-51.6l27.4-60.6,1.3-4.1Z"/>
          <path class="st5" d="M1248,1407.8c.2,4,8.3,17.6,13.1,25.3,2.3,3.6,6.2,5.9,10.5,5.9,2.7,0,5.8-.2,8.7-1,4.3-1.2,6.7-5.8,5.4-10l-9.3-31.7-28.4,11.6Z"/>
          <path class="st2" d="M1054.1,1036.3s-30,80.2,0,104.5,101.5,51.8,117.5,100.4c16,48.6,43.1,142.9,79.4,176.3,0,0,25.5-2.5,35-12.6,0,0-20.7-140.9-34.3-177-11.8-31.3-29.2-76.5-62.5-101.7-9.5-7.2-7.9-18.7-3.5-29.8l8.1-20.3-139.7-39.8Z"/>
          <path class="st56" d="M1366.7,973.5c-50.3,3-34.6-77.3-33.7-80.5l-76.3,53.9s4,42.9,67.5,65.5c16,5.7,30.7,6,43.7,3.2-5.5-16.1-4.4-30.6-1.2-42.1Z"/>
          <path class="st55" d="M1463.9,949.3c-18.7-13-40,0-40,0-25,16.4-43.6,23.3-57.2,24.2-3.2,11.5-4.4,25.9,1.2,42.1,28.1-6,48.1-26.3,56.9-36.8,3.1-3.8,8.7-4.4,12.5-1.4,3.9,3.1,7.7,7.3,7,11.7-1.4,8.8,8.8,11.5,9.6,8.4.8-3.2-3.5-22-3.5-22,0,0,20.3,20.4,28.2,28.3,7.9,7.8,17.9,0,17.9,0,0,0-13.9-41.5-32.6-54.5Z"/>
          <path class="st52" d="M1132.3,769s73.1-29.3,209.2,83.1c0,0,11.4,23.5-1,44.5-12.4,20.9-130.6,123-146.8,179.6,0,0-70.4,22.9-143.2-31.4,0,0,6.4-157.5,81.8-275.8Z"/>
          <path class="st51" d="M1276.9,742.9l-36,43.6c-3.6,4.3-4.4,10.4-1.9,15.4,5,10.2,16.9,25,43.1,23,7.8-.6,14.7-5.3,18.2-12.4l25.2-52-48.6-17.6Z"/>
          <path class="st58" d="M1075.7,955.9c-8.5-34.6,77.5-111.7,77.5-111.7l-20.9-75.3s-185.7,123.6-138.4,223c6.8,14.2,15.8,24.2,26.2,30.9,15-40.2,38.8-58.7,55.5-67Z"/>
          <path class="st53" d="M1075.7,950.9c-.9,0-1.7-.6-2-1.5-8.7-35.3,74.6-110.5,78.1-113.7.8-.7,2.1-.7,2.9.2.7.8.7,2.1-.2,2.9-.9.8-85,76.7-76.9,109.7.3,1.1-.4,2.2-1.5,2.5-.2,0-.3,0-.5,0Z"/>
          <path class="st54" d="M1206,953s-102,39.6-126.8,9.8c-1.7-2-2.8-4.3-3.4-6.8-16.7,8.3-40.6,26.8-55.5,67,53.6,34.3,145.3-19.1,170.1-34.8,4.1-2.6,9-3.5,13.7-2.5,9.6,2,26.1,4.9,35,3.5,13-2,31.7,44,52.9,29.8,0,0-18.1-79.9-85.8-66Z"/>
          <g>
            <path class="st57" d="M1355.3,678.8c.4,1.4-8.4,96.8-8.4,96.8l-54.4-6.2-5.1-91.7s61.8-22.5,67.9,1Z"/>
            <path class="st50" d="M1301.5,696.7l-1.1,48.5c0,.6,0,1.2.2,1.8.9,3.7,5.1,16.1,17.6,11.1,11.3-4.6,21.7-8.6,29.3-7.2,3.4.7,5.8,3.8,5.5,7.3-.8,8.7-3,28.2-7.4,44.8-.9,3.4-4.3,5.5-7.7,4.9-10.4-1.8-32.2-6.3-48.9-14-2.3-1-3.8-3.2-3.9-5.7-.8-12.1-3.4-48.9-5.7-59.1-2.2-9.5-14.6-14-20-15.5-1.8-.5-3.2-1.7-4.1-3.3-3-5.7-7.8-19.2,8.9-26.7,3.5-1.6,5-5.7,3.3-9.2-3.4-6.9-5.7-17.7,7.1-25.2,13-7.6,24-1.5,30.2,3.9,2.5,2.2,6.1,2.1,8.7,0,1.5-1.2,3.5-1.7,6.1-.5,3.5,1.7,7.8-.2,9.1-3.9,2.5-7.1,8.4-15,22.1-14.2,24.2,1.5,29.8,27.5,25.2,43.6s-30.7,13-44.4,6.7c-10.4-4.8-22.3,2.7-27.5,6.7-1.6,1.2-2.6,3.2-2.6,5.2Z"/>
            <path class="st59" d="M1279.1,746.8s6.8-28.4-4-34-25.3-.5-19.8,19c6.8,24.2,23.8,15.1,23.8,15.1Z"/>
          </g>
        </g>
        <g>
          <path class="st65" d="M1258.2,1031c.2,0,.3,0,.5,0l213.9-.2c5.3,0,9.6-4.3,9.6-9.6,0-5.3-4.3-9.7-9.6-9.6l-213.9.2c-5.3,0-9.6,4.3-9.6,9.6,0,5.1,4,9.3,9.1,9.6Z"/>
          <path class="st64" d="M1664.9,836.8h-178.1c-13.1,0-25.1,7.6-30.7,19.5l-82.4,174.6h221.4c8.5,0,16.1-5.2,19.2-13.1l63.9-161.6c3.7-9.3-3.2-19.5-13.2-19.5Z"/>
          <path class="st72" d="M1539.4,926.3c-3.9,12-1,23.6,6.4,26,7.4,2.4,16.5-5.4,20.3-17.4,3.9-12,1-23.6-6.4-26-7.4-2.4-16.5,5.4-20.3,17.4Z"/>
        </g>
        <g>
          <g>
            <g>
              <path class="st72" d="M968.6,970.8h119.3v-23.9h-119.3c2.6,0,2.6,23.9,0,23.9Z"/>
              <path class="st61" d="M1087.9,964.8v-10.9c0-3.9-2.4-7-5.3-7h-113.5c-2.3,0-4.1-1.9-4.1-4.1s.6-1.3,1.3-1.3h124.1c2.8,0,7.4,4.5,7.4,10v15.3c0,5.2-4.4,9.4-7.1,9.4h-123.7c-1.1,0-1.9-.9-1.9-1.9,0-1.9,1.6-3.5,3.5-3.5h114.9c2.5,0,4.5-2.7,4.5-6Z"/>
            </g>
            <path class="st73" d="M1084.6,954h-111.9c-1.2,0-2.2-1-2.2-2.2s1-2.2,2.2-2.2h111.9c1.2,0,2.2,1,2.2,2.2,0,1.2-1,2.2-2.2,2.2Z"/>
            <path class="st73" d="M1084.6,957.6h-111.9c-1.2,0-2.2-1-2.2-2.2s1-2.2,2.2-2.2h111.9c1.2,0,2.2,1,2.2,2.2,0,1.2-1,2.2-2.2,2.2Z"/>
            <path class="st73" d="M1084.6,961.1h-111.9c-1.2,0-2.2-1-2.2-2.2s1-2.2,2.2-2.2h111.9c1.2,0,2.2,1,2.2,2.2,0,1.2-1,2.2-2.2,2.2Z"/>
            <path class="st73" d="M1084.6,964.6h-111.9c-1.2,0-2.2-1-2.2-2.2s1-2.2,2.2-2.2h111.9c1.2,0,2.2,1,2.2,2.2,0,1.2-1,2.2-2.2,2.2Z"/>
            <path class="st73" d="M1084.6,968.2h-111.9c-1.2,0-2.2-1-2.2-2.2s1-2.2,2.2-2.2h111.9c1.2,0,2.2,1,2.2,2.2,0,1.2-1,2.2-2.2,2.2Z"/>
          </g>
          <g>
            <path class="st72" d="M1151.3,1027.8h-206.4c-2.5,0-4.5-2-4.5-4.5v-43c0-2.5,2-4.5,4.5-4.5h206.4c2.5,0,4.5,2,4.5,4.5v43c0,2.5-2,4.5-4.5,4.5Z"/>
            <path class="st71" d="M986.6,1023h-18.5c-2.5,0-4.5-2-4.5-4.5v-33.2c0-2.5,2-4.5,4.5-4.5h18.5c2.5,0,4.5,2,4.5,4.5v33.2c0,2.5-2,4.5-4.5,4.5ZM968.1,982.9c-1.3,0-2.3,1-2.3,2.3v33.2c0,1.3,1,2.3,2.3,2.3h18.5c1.3,0,2.3-1,2.3-2.3v-33.2c0-1.3-1-2.3-2.3-2.3h-18.5Z"/>
            <path class="st71" d="M1000.5,1023h-4c-2.1,0-3.9-1.7-3.9-3.9v-34.5c0-2.1,1.7-3.9,3.9-3.9h4c2.1,0,3.9,1.7,3.9,3.9v34.5c0,2.1-1.7,3.9-3.9,3.9ZM996.5,982.9c-.9,0-1.6.7-1.6,1.6v34.5c0,.9.7,1.6,1.6,1.6h4c.9,0,1.6-.7,1.6-1.6v-34.5c0-.9-.7-1.6-1.6-1.6h-4Z"/>
          </g>
        </g>
        <g>
          <path class="st60" d="M825.8,1066.7v391.1c0,6.8,5.1,12.5,11.9,12.5h860.2c6.8,0,11.3-5.7,11.3-12.5v-391.1h-883.4Z"/>
          <path class="st62" d="M1130.7,1066.7v391.1c0,6.8,5.6,12.5,12.3,12.5h566.1v-403.6h-578.4Z"/>
          <g>
            <path class="st63" d="M819.6,1040.3c-.5-2.8.2-5.7,1.9-7.8s4.2-3.5,6.9-3.5h899.3c3.5,0,6.7,1.9,8.6,5,1.9,3.1,2.1,7.1.7,10.5l-9.7,22.5c-2.2,5.2-7.1,8.5-12.4,8.5h-880.3c-5,0-9.2-3.7-10.1-8.9l-4.8-26.3Z"/>
            <path class="st67" d="M797.8,1028.1c-3.6,0-7.1,1.5-9.4,4.1s-3.5,6.1-3,9.5l3.3,22c.9,5.9,6.1,9.7,12.4,9.7h301.6l.5-45-305.3-.3Z"/>
          </g>
        </g>
      </g>
      <g>
        <path class="st66" d="M1663.2,1473.3c11.4-10,29.7-21.3,56-24.5l8.9,5.4s-5.7,8.4-16,17.2c-9.5,5.5-24.3,13-36.5,14.7-11.9,1.6-13.6-5.6-12.4-12.8Z"/>
        <path class="st70" d="M1654.6,1481.9c2.3-2.6,5.1-5.5,8.6-8.6-1.2,7.2.5,14.4,12.4,12.8,12.2-1.6,26.9-9.1,36.5-14.7-11.9,10.2-30.1,21-53.1,20.4-5.1-.1-7.8-6.1-4.4-10Z"/>
        <g>
          <path class="st48" d="M2128.7,1111.4s48,26.6,51.9,71.5.3,231.6-95.8,277.5c-96.2,45.9-223.4,35.3-272.2,30.3-48.7-5-75.7-38.1-81.8-60.9-6-22.8-15.8-107.7,35.5-135.1s105.1-69.4,158.9-110.2,146-107.6,203.5-73.1Z"/>
          <path class="st49" d="M1781.5,1310.2s12.9.7,14.5,27.3c0,0-30,26.9-70.6,33.3-3,.5,4.3-20.8,5.4-23.7,5.2-13.7,21.7-22.5,50.7-37Z"/>
          <path class="st11" d="M1927.2,1278.9h-27.3s-83.8-92.6-138.8-101.9c0,0-38.3,48.9,2,140.1,3.2,7.3,12.3,10.6,19.1,6.3,2-1.3,3.5-3,4.4-5.2l-3.2-77.9s71.5,62.5,83.9,74.6c12.4,12.1,75.6,4.7,60-36Z"/>
          <path class="st70" d="M1730.8,1347.2c7.1,2.3,10.2,12.3,28,5.7,17.3-6.4,30.2-14.6,36.8-19.4.1,1.3.3,2.6.4,4.1,0,0-31.6,30.1-72.2,36.5-3,.5-5.5-2.6-4.4-5.4,2-5.2,5.5-13,11.3-21.4Z"/>
          <path class="st10" d="M1926.3,1298.7l-127.9,1.4s-73,60.4-86.3,152.6c0,0-2.2,6.8,11,7.9,0,0,44.2-28.8,73-79.8,35.3-62.5,105.3-34.4,105.3-34.4,23-16.6,55.5-19.9,79.9-25.5l-54.9-22.2Z"/>
          <path class="st13" d="M1923.2,1195.7s-13.8,69-81.2,96.3l-24-2.8-5.7,9,56.3,1.8s48.1-19.1,73.6-71c.8-1.7,14.9-30.7-19-33.3Z"/>
          <path class="st26" d="M1915.9,1297.6s15.7-42.6,19-83.9c0,0-11.5-9.8-18.6-14.1-2.3-1.4-3.2-4.3-2-6.7,5.3-10.9,37.1-53.7,39.5-54.3,13-3.2,66.1-28.5,103.6,22.7,16.1,22-3.2,89.6-76.1,159.7l-15,2.9-50.3-26.2Z"/>
          <path class="st23" d="M1976.2,1223s-43.5,51.5-99.1,59c0,0-14.4-13.1-25.1-8.4-10.7,4.7-25.3,25.3-25.3,25.3h71.4s67.5-2.4,101.3-43.3c-2.7-14.3-10.8-22.9-23.2-32.6Z"/>
          <path class="st25" d="M2001.6,1102.4l9.5,31.7c.4,1.5-.1,3-1.4,3.9-4.6,3.1-16.6,9.4-33,3.3-1.9-.7-3.2-2.4-3.3-4.4l-2.3-27.7,30.4-6.8Z"/>
          <g>
            <path class="st27" d="M1945.8,1076.7s4.7,32.9,17.3,43,37.3,2.5,45.6-22.3l-16.6-42.4-46.3,21.7Z"/>
            <path class="st24" d="M1994,1082.4c-1,.3-2-.3-2.1-1.3-.5-3-1.6-9.1-3.9-13.1,0,0,1.2-4.3-10.9,2.2-12.1,6.5-30.3,16.1-41,10.4-10.4-5.6-21-33.6,6.6-28.4,1.1.2,2-.6,1.9-1.7-.3-4.6.1-15.2,10.8-18.6,10-3.2,15.5,1.3,17.8,4.1.7.8,1.9.8,2.5,0,3-3.9,11.2-12.3,23.2-7,9.9,4.4,11.4,10.5,11.3,14.3,0,1.2,1.2,2.1,2.3,1.5,3-1.4,7.9-2.1,12.6,3.7,6.5,8.1-2.8,15.1-5.5,16.9-.5.3-.7.8-.7,1.3,0,4.2-.7,22.6-9.9,32.9-.8.9-2.3.6-2.7-.5l-7.1-16.9c-.3-.8-1.2-1.2-2-.9l-3.1,1Z"/>
            <path class="st12" d="M1993.9,1085.9s4.3-17.6,10.9-11.9-1.7,18.3-9.2,20.7l-1.7-8.8Z"/>
          </g>
          <path class="st22" d="M1830.3,1302.9l-32.1-106.9c-1.3-4.4-5.2-7.5-9.7-7.8l-43.3-3c-4.4-.3-7.7,4-6.2,8.2l35.8,102.1c1.2,3.3,4.1,5.6,7.6,6l42.6,4.7,5.2-3.3Z"/>
          <path class="st77" d="M1771.1,1232.2c2.4,4.8,6.5,7.7,9.2,6.3,2.7-1.3,3-6.3.6-11.2s-6.5-7.7-9.2-6.3c-2.7,1.3-3,6.3-.6,11.2Z"/>
          <path class="st28" d="M1825,1306.2c0,0,.1,0,.2,0l90.8-4.6c2.2-.1,4-2,3.9-4.3-.1-2.2-2-4-4.3-3.9l-90.8,4.6c-2.2.1-4,2-3.9,4.3.1,2.2,1.9,3.9,4.1,3.9Z"/>
          <path class="st29" d="M1934.9,1214.8c-.6,0-1.1-.5-1.1-1.1,0-19.2,7.3-44.7,7.4-44.9.2-.6.8-.9,1.4-.8.6.2.9.8.8,1.4,0,.3-7.4,25.4-7.3,44.3,0,.6-.5,1.1-1.1,1.1h0Z"/>
          <path class="st30" d="M1976.2,1224.1c-.2,0-.5,0-.7-.2-.5-.4-.6-1.1-.2-1.6.2-.3,19.9-25.3,26.6-42.4.2-.6.9-.9,1.5-.6.6.2.9.9.6,1.5-6.9,17.4-26.1,41.9-27,42.9-.2.3-.5.4-.9.4Z"/>
          <path class="st33" d="M2004,1262.8l-3.8-5.4c-.4-.5-.2-1.2.3-1.6.5-.4,1.2-.2,1.6.3l2.8,3.9c27.6-12.3,44.8-45.4,44.9-45.7.3-.6,1-.8,1.5-.5.6.3.8,1,.5,1.5-.2.3-18,34.8-46.9,47.2l-.8.4Z"/>
        </g>
      </g>
      <g>
        <path class="st74" d="M2209.1,847.6c0-5.3-4.3-9.6-9.6-9.6h-377.6c-5.3,0-9.6,4.3-9.6,9.6v7.6c0,5.3,4.3,9.6,9.6,9.6h377.6c5.3,0,9.6-4.3,9.6-9.6v-7.6Z"/>
        <g>
          <path class="st76" d="M2094.9,657.8l-11.4,181.5h68v-176.4c0-5.1-3.2-9.6-8-11.2-9-3.1-24.3-6.9-39.3-4.2-5.1.9-9,5.2-9.3,10.4Z"/>
          <g>
            <path class="st76" d="M2009.7,657l7.5,182.2h64.4l4.9-184.2c.1-5.1-3.1-9.6-8-11.1-21-6.3-41.8-6.9-62.3,2.5-4.2,1.9-6.8,6.1-6.6,10.7Z"/>
            <g>
              <path class="st74" d="M2026.9,780.8l.5,6.4c.1,1.9,1.8,3.4,3.7,3.3l33.8-2c1.8-.1,3.2-1.5,3.3-3.3l.3-4.4c.2-2.1-1.5-3.8-3.5-3.8h-34.6c-2.1,0-3.7,1.8-3.5,3.8Z"/>
              <path class="st74" d="M2028.3,796v2.3c0,1.8,1.5,3.2,3.3,3.1l32.3-1.3c1.7,0,3-1.5,3-3.1v-2.5c0-1.8-1.5-3.2-3.3-3.1l-32.3,1.5c-1.7,0-3,1.5-3,3.1Z"/>
              <path class="st74" d="M2072.7,657.8c-1.3-1.4-3-2.2-4.9-2.1l-39.4,1.8c-3.6.2-6.3,3.5-6.2,7.4l2,90.5c0,3.8,2.8,6.8,6.1,7l34.7,2.2c1.8.1,3.5-.6,4.8-1.9,1.3-1.3,2.1-3.2,2.1-5.1l2.7-94.5c0-2-.6-3.9-1.9-5.4Z"/>
            </g>
          </g>
          <g>
            <path class="st74" d="M2103.6,787.7l.4,6.4c.1,1.9,1.5,3.4,3.2,3.3l28.8-2c1.5-.1,2.7-1.5,2.8-3.3l.3-4.4c.1-2.1-1.3-3.8-3-3.8h-29.5c-1.8,0-3.1,1.8-3,3.8Z"/>
            <path class="st74" d="M2104.8,802.9v2.3c0,1.8,1.3,3.2,2.8,3.1l27.6-1.3c1.4,0,2.6-1.5,2.6-3.1v-2.5c0-1.8-1.3-3.2-2.8-3.1l-27.6,1.5c-1.4,0-2.6,1.5-2.6,3.1Z"/>
            <path class="st74" d="M2135.7,662.4l-22.5-2.6c-2.4-.3-4.9.5-6.7,2.1-1.9,1.6-2.9,3.9-3,6.4l-2.7,87.2c0,2.4.8,4.7,2.6,6.5,1.7,1.7,4,2.6,6.4,2.6l21.4-.6c4.6-.1,8.3-3.8,8.5-8.4l3.8-84c.2-4.6-3.2-8.6-7.8-9.1Z"/>
          </g>
        </g>
        <g>
          <g>
            <g>
              <g>
                <path class="st74" d="M1976.7,822.6s31.3-72.2,7.6-148.3c-.2-.5-1-.4-1.1.1-5.7,46-7.4,95.9-6.5,148.2Z"/>
                <path class="st75" d="M1976.8,821.8c-.1,0-.2,0-.3,0-.6-.2-.9-.8-.8-1.4,10.6-37.5,8.8-125.7,8.8-126.5,0-.6.5-1.1,1.1-1.1h0c.6,0,1.1.5,1.1,1.1,0,.9,1.8,89.4-8.9,127.2-.1.5-.6.8-1.1.8Z"/>
              </g>
              <g>
                <path class="st74" d="M1969.5,810.8s19.3-88.6-17.2-178.3c-.2-.6-1.1-.4-1.1.2,2,55.5,8.6,115.4,18.3,178.1Z"/>
                <path class="st75" d="M1969.3,809.6s0,0-.1,0c-.6,0-1.1-.6-1-1.2,4.3-45.7-12.2-151.3-12.3-152.4,0-.6.3-1.2.9-1.3.6-.1,1.2.3,1.3.9.2,1.1,16.7,107,12.4,152.9,0,.6-.5,1-1.1,1Z"/>
              </g>
              <g>
                <path class="st74" d="M1966.4,834.8s9.3-77.3-36.7-146.9c-.3-.5-1.1-.2-1,.3,8.1,46.3,21.3,95.5,37.8,146.5Z"/>
                <path class="st75" d="M1966,833.8c-.5,0-.8-.4-.8-.8-.8-39-28.8-125-29.1-125.9-.1-.4,0-.9.5-1.1.4-.1.9,0,1.1.5.3.9,28.4,87.2,29.1,126.4,0,.5-.4.8-.8.9,0,0,0,0,0,0Z"/>
              </g>
            </g>
            <path class="st76" d="M1947.4,792.2h42.5c2.8,0,4.8,2.6,4.2,5.3-2.7,11.8-6,23.7-12.6,35.9-1.2,2.2-3.6,3.6-6.1,3.6h-13.9c-2.5,0-4.8-1.4-6-3.6-5.3-9.9-10.5-21.8-13-35.2-.6-3.1,1.8-6,5-6Z"/>
          </g>
          <g>
            <g>
              <g>
                <path class="st76" d="M1908.6,829.6s-19.3-82.1,16.2-159.8c.2-.5,1.1-.3,1.1.3-1.7,50.1-8,103.7-17.3,159.5Z"/>
                <path class="st74" d="M1908.8,828.6c-.6,0-1.1-.4-1.1-1-4.5-42.1,11.4-136.4,11.6-137.4.1-.6.7-1,1.3-.9.6.1,1,.7.9,1.3-.2.9-16,95-11.5,136.7,0,.6-.4,1.2-1,1.2,0,0,0,0-.1,0Z"/>
              </g>
              <g>
                <path class="st76" d="M1898.2,810.8s19.3-88.6-17.2-178.3c-.2-.6-1.1-.4-1.1.2,2,55.5,8.6,115.4,18.3,178.1Z"/>
                <path class="st74" d="M1898,809.6s0,0-.1,0c-.6,0-1.1-.6-1-1.2,4.3-45.7-12.2-151.3-12.3-152.4,0-.6.3-1.2.9-1.3.6-.1,1.2.3,1.3.9.2,1.1,16.7,107,12.4,152.9,0,.6-.5,1-1.1,1Z"/>
              </g>
              <g>
                <path class="st76" d="M1895.1,834.8s11.5-69.9-32-131.2c-.3-.4-1.1-.1-1,.3,6.6,41.4,18.2,85.3,33,130.8Z"/>
                <path class="st74" d="M1894.8,834.2h0c-.6,0-1.1-.5-1.1-1.1.4-35-24.7-111.6-25-112.3-.2-.6.1-1.2.7-1.4.6-.2,1.2.1,1.4.7.3.8,25.5,77.7,25.1,113.1,0,.6-.5,1.1-1.1,1.1Z"/>
              </g>
            </g>
            <path class="st74" d="M1876.1,792.2h42.5c2.8,0,4.8,2.6,4.2,5.3-2.7,11.8-6,23.7-12.6,35.9-1.2,2.2-3.6,3.6-6.1,3.6h-13.9c-2.5,0-4.8-1.4-6-3.6-5.3-9.9-10.5-21.8-13-35.2-.6-3.1,1.8-6,5-6Z"/>
          </g>
        </g>
      </g>
      <g>
        <path class="st74" d="M1879.6,596.5c0-5.3-4.3-9.6-9.6-9.6h-377.6c-5.3,0-9.6,4.3-9.6,9.6v7.6c0,5.3,4.3,9.6,9.6,9.6h377.6c5.3,0,9.6-4.3,9.6-9.6v-7.6Z"/>
        <g>
          <path class="st76" d="M1765.3,406.7l-11.4,181.5h68v-176.4c0-5.1-3.2-9.6-8-11.2-9-3.1-24.3-6.9-39.3-4.2-5.1.9-9,5.2-9.3,10.4Z"/>
          <g>
            <path class="st76" d="M1680.1,405.9l7.5,182.2h64.4l4.9-184.2c.1-5.1-3.1-9.6-8-11.1-21-6.3-41.8-6.9-62.3,2.5-4.2,1.9-6.8,6.1-6.6,10.7Z"/>
            <g>
              <path class="st74" d="M1697.4,529.7l.5,6.4c.1,1.9,1.8,3.4,3.7,3.3l33.8-2c1.8-.1,3.2-1.5,3.3-3.3l.3-4.4c.2-2.1-1.5-3.8-3.5-3.8h-34.6c-2.1,0-3.7,1.8-3.5,3.8Z"/>
              <path class="st74" d="M1698.8,544.9v2.3c0,1.8,1.5,3.2,3.3,3.1l32.3-1.3c1.7,0,3-1.5,3-3.1v-2.5c0-1.8-1.5-3.2-3.3-3.1l-32.3,1.5c-1.7,0-3,1.5-3,3.1Z"/>
              <path class="st74" d="M1743.2,406.7c-1.3-1.4-3-2.2-4.9-2.1l-39.4,1.8c-3.6.2-6.3,3.5-6.2,7.4l2,90.5c0,3.8,2.8,6.8,6.1,7l34.7,2.2c1.8.1,3.5-.6,4.8-1.9,1.3-1.3,2.1-3.2,2.1-5.1l2.7-94.5c0-2-.6-3.9-1.9-5.4Z"/>
            </g>
          </g>
          <g>
            <path class="st74" d="M1774,536.6l.4,6.4c.1,1.9,1.5,3.4,3.2,3.3l28.8-2c1.5-.1,2.7-1.5,2.8-3.3l.3-4.4c.1-2.1-1.3-3.8-3-3.8h-29.5c-1.8,0-3.1,1.8-3,3.8Z"/>
            <path class="st74" d="M1775.2,551.8v2.3c0,1.8,1.3,3.2,2.8,3.1l27.6-1.3c1.4,0,2.6-1.5,2.6-3.1v-2.5c0-1.8-1.3-3.2-2.8-3.1l-27.6,1.5c-1.4,0-2.6,1.5-2.6,3.1Z"/>
            <path class="st74" d="M1806.1,411.3l-22.5-2.6c-2.4-.3-4.9.5-6.7,2.1s-2.9,3.9-3,6.4l-2.7,87.2c0,2.4.8,4.7,2.6,6.5,1.7,1.7,4,2.6,6.4,2.6l21.4-.6c4.6-.1,8.3-3.8,8.5-8.4l3.8-84c.2-4.6-3.2-8.6-7.8-9.1Z"/>
          </g>
        </g>
        <g>
          <g>
            <g>
              <g>
                <path class="st74" d="M1563.1,573.5s31.3-72.2,7.6-148.3c-.2-.5-1-.4-1.1.1-5.7,46-7.4,95.9-6.5,148.2Z"/>
                <path class="st75" d="M1563.2,572.7c-.1,0-.2,0-.3,0-.6-.2-.9-.8-.8-1.4,10.6-37.5,8.8-125.7,8.8-126.5,0-.6.5-1.1,1.1-1.1.7,0,1.1.5,1.1,1.1,0,.9,1.8,89.4-8.9,127.2-.1.5-.6.8-1.1.8Z"/>
              </g>
              <g>
                <path class="st74" d="M1555.9,561.7s19.3-88.6-17.2-178.3c-.2-.6-1.1-.4-1.1.2,2,55.5,8.6,115.4,18.3,178.1Z"/>
                <path class="st75" d="M1555.7,560.5s0,0-.1,0c-.6,0-1.1-.6-1-1.2,4.3-45.7-12.2-151.3-12.3-152.4,0-.6.3-1.2.9-1.3.6,0,1.2.3,1.3.9.2,1.1,16.7,107,12.4,152.9,0,.6-.5,1-1.1,1Z"/>
              </g>
              <g>
                <path class="st74" d="M1552.9,585.7s9.3-77.3-36.7-146.9c-.3-.5-1.1-.2-1,.3,8.1,46.3,21.3,95.5,37.8,146.5Z"/>
                <path class="st75" d="M1552.4,584.7c-.5,0-.8-.4-.8-.8-.8-39-28.8-125-29.1-125.9-.1-.4,0-.9.5-1.1.4-.1.9,0,1.1.5.3.9,28.4,87.2,29.1,126.4,0,.5-.4.8-.8.9h0Z"/>
              </g>
            </g>
            <path class="st74" d="M1533.8,543.1h42.5c2.8,0,4.8,2.6,4.2,5.3-2.7,11.8-6,23.7-12.6,35.9-1.2,2.2-3.6,3.6-6.1,3.6h-13.9c-2.5,0-4.8-1.4-6-3.6-5.3-9.9-10.5-21.8-13-35.2-.6-3.1,1.8-6,5-6Z"/>
          </g>
          <g>
            <g>
              <g>
                <path class="st76" d="M1649,580.5s-19.3-82.1,16.2-159.8c.2-.5,1.1-.3,1.1.3-1.7,50.1-8,103.7-17.3,159.5Z"/>
                <path class="st74" d="M1649.2,579.5c-.6,0-1.1-.4-1.1-1-4.5-42.1,11.4-136.4,11.6-137.4.1-.6.7-1,1.3-.9.6.1,1,.7.9,1.3-.2.9-16,95-11.5,136.7,0,.6-.4,1.2-1,1.2,0,0,0,0-.1,0Z"/>
              </g>
              <g>
                <path class="st76" d="M1638.6,561.7s19.3-88.6-17.2-178.3c-.2-.6-1.1-.4-1.1.2,2,55.5,8.6,115.4,18.3,178.1Z"/>
                <path class="st74" d="M1638.4,560.5s0,0-.1,0c-.6,0-1.1-.6-1-1.2,4.3-45.7-12.2-151.3-12.3-152.4,0-.6.3-1.2.9-1.3.6,0,1.2.3,1.3.9.2,1.1,16.7,107,12.4,152.9,0,.6-.5,1-1.1,1Z"/>
              </g>
              <g>
                <path class="st76" d="M1635.6,585.7s11.5-69.9-32-131.2c-.3-.4-1.1-.1-1,.3,6.6,41.4,18.2,85.3,33,130.8Z"/>
                <path class="st74" d="M1635.2,585.1h0c-.6,0-1.1-.5-1.1-1.1.4-35-24.7-111.6-25-112.3-.2-.6.1-1.2.7-1.4.6-.2,1.2.1,1.4.7.3.8,25.5,77.7,25.1,113.1,0,.6-.5,1.1-1.1,1.1Z"/>
              </g>
            </g>
            <path class="st76" d="M1616.5,543.1h42.5c2.8,0,4.8,2.6,4.2,5.3-2.7,11.8-6,23.7-12.6,35.9-1.2,2.2-3.6,3.6-6.1,3.6h-13.9c-2.5,0-4.8-1.4-6-3.6-5.3-9.9-10.5-21.8-13-35.2-.6-3.1,1.8-6,5-6Z"/>
          </g>
        </g>
      </g>
      <g>
        <g>
          <path class="st74" d="M1805.5,185.7l10.8-.4c1.2,0,2.2.9,2.2,2.1,0,1.2-.9,2.2-2.1,2.2h0s-10.6.4-10.6.4h0c-1.2,0-2.2-.9-2.2-2.1s.9-2.2,2.1-2.2h0Z"/>
          <path class="st74" d="M1827,185.1h10.7c1.2,0,2.1.9,2.1,2s-.9,2.1-2.1,2.1h0s-10.7,0-10.7,0h0c-1.2,0-2.1-.9-2.2-2.1s.9-2.1,2.1-2.2h0Z"/>
          <path class="st74" d="M1848.4,185h10.7c1.2.2,2.1,1.1,2.1,2.3,0,1.2-1,2.1-2.2,2.1h-10.7c0-.1,0-.1,0-.1-1.2,0-2.1-1-2.1-2.2,0-1.2,1-2.1,2.2-2.1h0Z"/>
          <path class="st74" d="M1869.9,185.4l10.7.3c1.2,0,2.1,1,2.1,2.2,0,1.2-1,2.1-2.2,2.1h0s-10.7-.3-10.7-.3h0c-1.2,0-2.1-1-2.1-2.2,0-1.2,1-2.1,2.2-2.1h0Z"/>
          <path class="st74" d="M1891.4,186.2l10.7.5c1.2,0,2.1,1.1,2,2.2s-1.1,2.1-2.2,2h0s-10.7-.5-10.7-.5h0c-1.2,0-2.1-1.1-2-2.2,0-1.2,1.1-2.1,2.2-2h0Z"/>
          <path class="st74" d="M1912.8,187.3l10.7.7c1.2,0,2,1.1,2,2.2,0,1.2-1.1,2-2.2,2h0s-10.7-.7-10.7-.7h0c-1.2,0-2-1.1-2-2.2s1.1-2,2.2-2h0Z"/>
          <path class="st74" d="M1934.2,188.9l10.7,1c1.2.1,2,1.1,1.9,2.3-.1,1.2-1.1,2-2.3,1.9h0s-10.6-.9-10.6-.9h0c-1.2-.1-2-1.1-1.9-2.3.1-1.2,1.1-2,2.3-1.9h0Z"/>
          <path class="st74" d="M1955.6,190.9l10.7,1.2c1.1.1,2,1.2,1.8,2.3s-1.2,2-2.3,1.9h0s-10.6-1.2-10.6-1.2h0c-1.2-.1-2-1.2-1.9-2.3.1-1.1,1.2-2,2.3-1.9h0Z"/>
          <path class="st74" d="M1976.9,193.4l10.6,1.4c1.1.1,1.9,1.2,1.8,2.3-.2,1.1-1.2,1.9-2.3,1.8h0s-10.6-1.4-10.6-1.4h0c-1.1-.2-1.9-1.2-1.8-2.3.2-1.1,1.2-1.9,2.3-1.8h0Z"/>
          <path class="st74" d="M1998.2,196.3l10.6,1.7c1.1.2,1.9,1.2,1.7,2.4-.2,1.1-1.2,1.9-2.4,1.7h0s-10.6-1.6-10.6-1.6h0c-1.1-.2-1.9-1.2-1.7-2.4.2-1.1,1.2-1.9,2.4-1.7h0Z"/>
          <path class="st74" d="M2019.4,199.8l10.6,1.9c1.1.2,1.9,1.3,1.7,2.4-.2,1.1-1.3,1.9-2.4,1.7h0s-10.5-1.9-10.5-1.9h0c-1.1-.2-1.9-1.3-1.7-2.4.2-1.1,1.3-1.9,2.4-1.7h0Z"/>
          <path class="st74" d="M2040.5,203.7l10.5,2.2c1.1.2,1.8,1.3,1.6,2.4-.2,1.1-1.3,1.8-2.4,1.6h0s-10.5-2.2-10.5-2.2h0c-1.1-.2-1.8-1.3-1.6-2.4.2-1.1,1.3-1.8,2.4-1.6h0Z"/>
          <path class="st74" d="M2061.5,208.3l10.4,2.5c1.1.3,1.8,1.4,1.5,2.5s-1.4,1.8-2.5,1.5h0s-10.4-2.5-10.4-2.5h0c-1.1-.3-1.8-1.4-1.5-2.5.3-1.1,1.4-1.8,2.5-1.5h0Z"/>
          <path class="st74" d="M2082.4,213.5l10.4,2.9c1.1.3,1.7,1.4,1.4,2.5-.3,1.1-1.4,1.7-2.5,1.4h0s-10.3-2.8-10.3-2.8h0c-1.1-.3-1.7-1.4-1.4-2.5.3-1.1,1.4-1.7,2.5-1.4h0Z"/>
          <path class="st74" d="M2103,219.4l10.3,3.2c1.1.3,1.7,1.5,1.3,2.6s-1.5,1.7-2.6,1.3h0s-10.2-3.2-10.2-3.2h0c-1.1-.4-1.7-1.5-1.3-2.6.3-1.1,1.5-1.7,2.6-1.3h0Z"/>
          <path class="st74" d="M2123.5,226.1l10.1,3.7c1.1.4,1.6,1.5,1.2,2.6s-1.5,1.6-2.6,1.2h0s-10-3.6-10-3.6h0c-1.1-.4-1.6-1.6-1.2-2.6.4-1.1,1.5-1.6,2.6-1.2h0Z"/>
          <path class="st74" d="M2143.6,233.6l9.9,4.1c1,.4,1.5,1.6,1.1,2.6s-1.6,1.5-2.6,1.1h0s-9.9-4.1-9.9-4.1h0c-1-.4-1.5-1.6-1.1-2.7s1.6-1.5,2.7-1.1h0Z"/>
          <path class="st74" d="M2163.4,242.1l9.7,4.6c1,.5,1.4,1.7,1,2.7-.5,1-1.7,1.4-2.7,1h0s-9.6-4.6-9.6-4.6h0c-1-.5-1.4-1.7-1-2.7.5-1,1.7-1.4,2.7-1h0Z"/>
          <path class="st74" d="M2182.8,251.6l9.4,5.2c1,.5,1.3,1.8.8,2.7-.5,1-1.8,1.3-2.7.8h0s-9.3-5.2-9.3-5.2h0c-1-.6-1.3-1.8-.8-2.8.5-1,1.8-1.3,2.7-.8h0Z"/>
          <path class="st74" d="M2201.5,262.4l9.1,5.8c.9.6,1.2,1.8.6,2.8-.6.9-1.8,1.2-2.8.6h0s-8.9-5.8-8.9-5.8h0c-.9-.6-1.2-1.9-.6-2.8.6-.9,1.8-1.2,2.8-.6h0Z"/>
          <path class="st74" d="M2219.4,274.4l8.6,6.5c.9.7,1.1,1.9.4,2.8s-1.9,1.1-2.8.4h0s-8.5-6.4-8.5-6.4h0c-.9-.7-1.1-1.9-.4-2.8.7-.9,1.9-1.1,2.8-.4h0Z"/>
          <path class="st74" d="M2236.5,287.5l8.4,6.8c.9.7,1,1.9.3,2.8-.7.9-1.9,1-2.8.3h0s-8.3-6.7-8.3-6.7h0c-.9-.7-1-2-.3-2.8.7-.9,1.9-1,2.8-.3h0Z"/>
          <path class="st74" d="M2253.1,301.2l8.1,7.1c.8.7.9,2,.2,2.8-.7.8-2,.9-2.8.2h0s-8-7.1-8-7.1h0c-.8-.8-.9-2-.2-2.8.7-.8,2-.9,2.8-.2h0Z"/>
          <path class="st74" d="M2269,315.6l7.7,7.5c.8.8.8,2,0,2.8s-2,.8-2.8,0h0s-7.7-7.5-7.7-7.5h0c-.8-.8-.8-2,0-2.8.8-.8,2-.8,2.8,0h0Z"/>
          <path class="st74" d="M2284.3,330.8l7.3,7.9c.7.8.7,2-.1,2.8s-2,.7-2.8-.1h0s-7.2-7.9-7.2-7.9h0c-.7-.8-.7-2.1.1-2.8.8-.7,2-.7,2.8.1h0Z"/>
          <path class="st74" d="M2298.7,346.9l6.8,8.4c.7.8.5,2.1-.3,2.8-.8.7-2.1.5-2.8-.3h0c0,0-6.7-8.3-6.7-8.3h0c-.7-.9-.5-2.1.3-2.8.8-.7,2.1-.6,2.8.3h0Z"/>
          <path class="st74" d="M2311.9,363.9l6.1,8.9c.6.9.4,2.1-.5,2.7-.9.6-2.1.4-2.7-.5h0c0,0-6-8.8-6-8.8h0c-.6-1-.4-2.2.5-2.8.9-.6,2.1-.4,2.7.5h0Z"/>
          <path class="st74" d="M2323.7,382l5.2,9.5c.5.9.2,2.1-.8,2.6-.9.5-2.1.2-2.6-.8h0c0,0-5.2-9.4-5.2-9.4h0c-.5-1-.2-2.2.8-2.7.9-.5,2.1-.2,2.7.8h0Z"/>
          <path class="st74" d="M2333.7,401.2l4.2,10c.4,1,0,2.1-1,2.5-1,.4-2.1,0-2.5-1h0c0-.1-4.1-9.9-4.1-9.9h0c-.4-1.1,0-2.2,1-2.6,1-.4,2.1,0,2.5,1h0Z"/>
          <path class="st74" d="M2341.4,421.5l2.8,10.5c.3,1-.3,2.1-1.4,2.4s-2.1-.3-2.4-1.4h0c0-.1-2.8-10.3-2.8-10.3h0c-.3-1.2.3-2.2,1.4-2.5,1-.3,2.1.3,2.4,1.4h0s0,0,0,0Z"/>
          <path class="st74" d="M2346.3,442.6l1.3,10.8c.1,1.1-.6,2-1.7,2.1-1.1.1-2-.6-2.1-1.7h0c0-.1-1.3-10.6-1.3-10.6h0c-.1-1.2.6-2.2,1.7-2.3,1.1-.1,2,.6,2.1,1.7h0Z"/>
          <path class="st74" d="M2348,464.2l-.4,10.9c0,1.1-.9,1.9-2,1.8s-1.9-.9-1.8-2h0c0-.1.4-10.7.4-10.7v-.2c0-1.1.9-1.9,2-1.9,1.1,0,1.9.9,1.9,2h0s0,0,0,0Z"/>
          <path class="st74" d="M2346.4,485.9l-2.1,10.7c-.2,1-1.2,1.7-2.2,1.5-1-.2-1.7-1.2-1.5-2.2h0c0-.1,2-10.5,2-10.5h0c.2-1.2,1.2-1.9,2.2-1.7s1.7,1.2,1.5,2.2h0s0,0,0,0Z"/>
          <path class="st74" d="M2341.4,507l-3.6,10.2c-.3,1-1.4,1.5-2.4,1.2-1-.3-1.5-1.4-1.2-2.4h0c0-.1,3.5-10.1,3.5-10.1h0c.3-1.1,1.4-1.6,2.4-1.3,1,.3,1.5,1.4,1.2,2.4h0Z"/>
          <path class="st74" d="M2333.6,527.2l-4.9,9.7c-.5.9-1.6,1.3-2.5.8s-1.3-1.6-.8-2.5h0c0,0,4.8-9.6,4.8-9.6h0c.5-1,1.6-1.4,2.6-.9.9.5,1.3,1.6.8,2.6h0Z"/>
          <path class="st74" d="M2323.3,546.2l-5.9,9.1c-.6.9-1.7,1.1-2.6.6-.9-.6-1.1-1.7-.6-2.6h0c0,0,5.8-9,5.8-9h0c.6-1,1.7-1.2,2.6-.6.9.6,1.1,1.7.6,2.6h0Z"/>
          <path class="st74" d="M2311,564l-6.7,8.5c-.6.8-1.8,1-2.6.3s-1-1.8-.3-2.6h0c0,0,6.6-8.4,6.6-8.4h0c.6-.9,1.8-1,2.7-.4.8.6,1,1.8.3,2.7h0Z"/>
          <path class="st74" d="M2297.3,580.7l-7.3,7.9c-.7.8-1.9.8-2.7.1s-.8-1.9-.1-2.7h0s7.2-7.9,7.2-7.9h0c.7-.8,1.9-.9,2.7-.2.8.7.8,1.9.1,2.7h0Z"/>
          <path class="st74" d="M2282.4,596.2l-7.8,7.4c-.7.7-1.9.7-2.6,0-.7-.8-.7-1.9,0-2.6h0s7.7-7.4,7.7-7.4h0c.8-.8,1.9-.7,2.6,0,.7.8.7,1.9,0,2.6h0Z"/>
          <path class="st74" d="M2266.7,610.9l-7.8,7.3h0c-.7.7-1.9.7-2.6,0s-.7-1.9,0-2.6l7.8-7.4c.8-.7,1.9-.7,2.6,0,.7.8.7,1.9,0,2.6h0s0,0,0,0Z"/>
          <path class="st74" d="M2251.3,625.7l-7.6,7.5h0c-.7.7-1.9.7-2.6,0s-.7-1.9,0-2.6l7.6-7.6c.7-.7,1.9-.7,2.6,0,.7.7.7,1.9,0,2.6h0s0,0,0,0Z"/>
          <path class="st74" d="M2236.3,640.9l-7.3,7.8h0c-.7.8-1.9.8-2.6.1s-.8-1.9,0-2.6l7.3-7.9c.7-.8,1.9-.8,2.6,0,.8.7.8,1.9,0,2.6h0s0,0,0,0Z"/>
          <path class="st74" d="M2221.9,656.7l-6.9,8.2h0c-.7.8-1.8.9-2.6.3-.8-.7-.9-1.8-.2-2.6l6.9-8.3c.7-.8,1.8-.9,2.6-.2s.9,1.8.2,2.6h0s0,0,0,0Z"/>
          <path class="st74" d="M2208.5,673.3l-6.2,8.6h0c-.6.9-1.7,1.1-2.6.5-.8-.6-1-1.7-.4-2.6l6.3-8.8c.6-.8,1.7-1,2.6-.4s1,1.7.4,2.6h0s0,0,0,0Z"/>
          <path class="st74" d="M2196.5,690.8l-5.2,9.2h0c-.5,1-1.6,1.3-2.5.8-.9-.5-1.2-1.6-.7-2.5l5.3-9.4c.5-.9,1.6-1.2,2.5-.7.9.5,1.2,1.6.7,2.5h0s0,.1,0,.1Z"/>
          <path class="st74" d="M2186.8,709.6l-3.7,9.9v.2c-.4.9-1.5,1.4-2.4,1.1-.9-.3-1.4-1.4-1.1-2.3l3.8-10.2c.3-.9,1.4-1.4,2.3-1.1.9.3,1.4,1.4,1.1,2.3h0s0,.2,0,.2Z"/>
          <path class="st74" d="M2180.5,729.7c-.7,3.4-1.2,6.9-1.5,10.4,0,1-1,1.7-2,1.7-1,0-1.7-1-1.7-2,.3-3.6.8-7.2,1.5-10.8.2-1,1.2-1.6,2.1-1.4,1,.2,1.6,1.2,1.4,2.1h0Z"/>
          <path class="st74" d="M2178.8,750.6l.9,10.5v.2c.1,1-.6,1.9-1.6,2-1,0-1.9-.6-2-1.6l-.9-10.9c0-1,.6-1.9,1.6-2s1.9.7,2,1.6h0s0,.2,0,.2Z"/>
          <path class="st74" d="M2181.6,771.5l2.7,10.2h0c.3,1.1-.3,2.1-1.3,2.3-1,.3-1.9-.3-2.2-1.3l-2.8-10.5c-.3-1,.3-1.9,1.3-2.2s1.9.3,2.2,1.3h0s0,.1,0,.1Z"/>
          <path class="st74" d="M2187.6,791.8l3.7,10h0c.3,1-.1,2-1.1,2.4s-2-.1-2.3-1.1l-3.8-10.1c-.3-.9.1-2,1.1-2.3.9-.3,2,.1,2.3,1.1h0s0,0,0,0Z"/>
          <path class="st74" d="M2195.3,811.7l4.2,9.8h0c.4.9,0,2-.9,2.4-.9.4-2,0-2.3-.9l-4.2-9.9c-.4-.9,0-2,.9-2.3.9-.4,2,0,2.3.9h0s0,0,0,0Z"/>
          <path class="st74" d="M2203.8,831.4l3.8,10.1c.3.9-.1,1.9-1,2.3s-1.9-.1-2.3-1h0c0-.1-3.7-10-3.7-10h0c-.3-1,.1-2.1,1-2.4.9-.3,1.9.1,2.3,1h0Z"/>
          <path class="st74" d="M2210.8,851.8l2.7,10.4c.2.9-.3,1.9-1.3,2.2-.9.2-1.9-.3-2.2-1.3h0c0,0-2.7-10.4-2.7-10.4h0c-.2-1,.3-2,1.3-2.2.9-.2,1.9.3,2.2,1.3h0Z"/>
          <path class="st74" d="M2215.7,872.8l1.8,10.6c.2,1-.5,1.9-1.4,2s-1.9-.5-2-1.4h0c0,0-1.8-10.5-1.8-10.5h0c-.2-1,.5-1.9,1.4-2.1,1-.2,1.9.5,2,1.4h0s0,0,0,0Z"/>
          <path class="st74" d="M2219.1,894.1l1.1,10.7c0,1-.6,1.8-1.6,1.9-1,0-1.8-.6-1.9-1.6h0c0,0-1.1-10.7-1.1-10.7h0c0-1,.6-1.9,1.6-2s1.8.6,1.9,1.6h0s0,0,0,0Z"/>
          <path class="st74" d="M2220.8,915.6l.3,10.8c0,1-.7,1.8-1.7,1.8-1,0-1.8-.7-1.8-1.7h0c0,0-.3-10.7-.3-10.7h0c0-1,.7-1.8,1.7-1.9s1.8.7,1.8,1.7h0s0,0,0,0Z"/>
          <path class="st74" d="M2221.1,937.1l-.4,10.8c0,1-.8,1.7-1.8,1.7-1,0-1.7-.8-1.7-1.8h0c0,0,.4-10.7.4-10.7h0c0-1,.8-1.8,1.8-1.7,1,0,1.7.8,1.7,1.8h0s0,0,0,0Z"/>
          <path class="st74" d="M2220,958.6l-1.1,10.7c-.1,1-1,1.6-1.9,1.5s-1.6-1-1.5-1.9h0c0,0,1.1-10.7,1.1-10.7h0c.1-1,1-1.7,1.9-1.6,1,.1,1.6,1,1.5,1.9h0s0,0,0,0Z"/>
          <path class="st74" d="M2217.3,980l-1.9,10.6c-.2.9-1.1,1.6-2,1.4-.9-.2-1.6-1.1-1.4-2h0c0,0,1.9-10.5,1.9-10.5h0c.2-1,1.1-1.6,2-1.5.9.2,1.6,1.1,1.4,2h0Z"/>
          <path class="st74" d="M2213.1,1001.1l-2.7,10.4c-.2.9-1.2,1.5-2.1,1.2-.9-.2-1.5-1.2-1.2-2.1h0c0,0,2.6-10.4,2.6-10.4h0c.2-1,1.2-1.5,2.1-1.3.9.2,1.5,1.2,1.2,2.1h0Z"/>
          <path class="st74" d="M2207.4,1021.9l-3.4,10.2c-.3.9-1.3,1.4-2.2,1.1-.9-.3-1.4-1.3-1.1-2.2h0c0,0,3.4-10.2,3.4-10.2h0c.3-1,1.3-1.4,2.2-1.1.9.3,1.4,1.3,1.1,2.2h0Z"/>
          <path class="st74" d="M2200.1,1042.2l-4.2,9.9c-.4.9-1.4,1.3-2.2.9-.9-.4-1.3-1.4-.9-2.2h0c0,0,4.1-9.9,4.1-9.9h0c.4-.9,1.4-1.3,2.2-1,.9.4,1.3,1.4.9,2.2h0Z"/>
          <path class="st74" d="M2191.4,1061.8l-4.9,9.6c-.4.8-1.5,1.2-2.3.7-.8-.4-1.2-1.5-.7-2.3h0c0,0,4.9-9.5,4.9-9.5h0c.4-.9,1.5-1.2,2.3-.8.8.4,1.2,1.5.7,2.3h0Z"/>
          <path class="st74" d="M2181.1,1080.8l-5.6,9.2c-.5.8-1.5,1-2.3.6s-1-1.5-.6-2.3h0c0,0,5.6-9.1,5.6-9.1h0c.5-.9,1.5-1.1,2.3-.6s1,1.5.6,2.3h0Z"/>
        </g>
        <g>
          <polygon class="st76" points="1757.6 149.8 1764.3 189.8 1734.3 177.1 1757.6 149.8"/>
          <path class="st74" d="M1573.8,156.6l123.8,76.9c2.4,1.5,5.2,1.9,7.9,1.2s5-2.4,6.4-4.9l72.6-127.2c.8-1.5.7-3.3-.3-4.6-1-1.3-2.8-1.9-4.4-1.4l-206,59.9Z"/>
          <polygon class="st76" points="1757.6 149.8 1573.8 156.6 1746 170.4 1748.3 181.4 1757.6 149.8"/>
          <polygon class="st76" points="1739 182.5 1764.3 189.8 1746 170.4 1739 182.5"/>
        </g>
      </g>
      <g>
        <g>
          <g>
            <g>
              <path class="st9" d="M311.5,1438.9s-87.3-201.6-21.2-414.1c.4-1.4,2.9-1.1,3.1.3,15.9,128.5,20.7,267.6,18.1,413.8Z"/>
              <path class="st34" d="M311.1,1434.6c-.5,0-.9-.3-1.1-.8-15.5-55-21.4-148.5-23.6-217.2-2.4-74.4-1.1-136.7-1.1-137.3,0-.6.4-1.1,1.1-1.1.6,0,1.1.5,1.1,1.1,0,.6-1.3,62.8,1.1,137.2,2.2,68.6,8.1,161.9,23.5,216.7.2.6-.2,1.2-.8,1.4-.1,0-.2,0-.3,0Z"/>
            </g>
            <g>
              <path class="st9" d="M331.5,1406s-53.9-247.4,48-497.8c.7-1.6,3.1-1.2,3,.6-5.5,155.1-24,322.2-51,497.2Z"/>
              <path class="st36" d="M332,1400.7c-.6,0-1.1-.4-1.1-1-12.1-128,34-423.5,34.5-426.5,0-.6.7-1,1.3-.9.6,0,1,.7.9,1.3-.5,3-46.6,298.2-34.5,426,0,.6-.4,1.2-1,1.2,0,0,0,0-.1,0Z"/>
            </g>
            <g>
              <path class="st9" d="M340,1473.1s-25.8-215.8,102.5-410.1c.8-1.3,3.2-.5,2.9,1-22.6,129.2-59.4,266.5-105.4,409.1Z"/>
              <path class="st31" d="M341.3,1468.9h0c-.6,0-1.1-.5-1.1-1.1,1.1-57.1,23.2-149.9,41.5-217.7,19.8-73.4,39.6-134.1,39.8-134.7.2-.6.8-.9,1.4-.7.6.2.9.8.7,1.4-.2.6-20,61.3-39.8,134.6-18.3,67.7-40.3,160.3-41.4,217.2,0,.6-.5,1.1-1.1,1.1Z"/>
            </g>
          </g>
          <path class="st69" d="M274.5,1353.7h118.6c8.9,0,15.5,8.4,13.9,17.1-7.1,37.5-21.4,70.6-36.3,98.3-3.3,6.2-9.8,10.1-16.8,10.1h-38.7c-7.1,0-13.7-3.9-17.1-10.1-18.6-33.9-27.7-67.5-35.3-100.4-1.8-7.6,4-15.1,11.8-15.1Z"/>
        </g>
        <g>
          <g>
            <polygon class="st35" points="604.2 1479.7 615.9 1479.7 615.9 1353.4 604.2 1353.4 604.2 1479.7"/>
            <path class="st32" d="M558.9,1482.1h102.3v-4.2c0-1.9-1.5-3.4-3.4-3.4h-95.5c-1.9,0-3.4,1.5-3.4,3.4v4.2h0Z"/>
            <path class="st37" d="M543.7,1349c0,6.9,5.7,12.6,12.6,12.6h103.5c6.9,0,12.6-5.7,12.6-12.6v-11.4c0-6.9-5.7-12.6-12.6-12.6h-103.5c-6.9,0-12.6,5.7-12.6,12.6v11.4h0Z"/>
          </g>
          <g>
            <path class="st38" d="M696.2,1269.2s17.3,2.7,36.9,15.7c3.1,2.1,4.8,5.6,4.3,9.3-2.3,18.5-11.9,78.4-43.6,136.9-1.7,3.1-2.2,6.7-1.4,10.1l5.5,25.6,10.2,9.6h-26.3l-17.5-47.4,7.5-2.4c5.8-1.8,9.8-7.2,9.9-13.3l.9-50.8c-.7-22.6,13.9-38.2,13.9-38.2l-42-2,41.8-53.1Z"/>
            <path class="st39" d="M718.3,1481c2.4,3.1-25.8,7.3-40,.4,0,0-19.7-34.3-19.7-52,0,0,1.6-3.6,13.1-2.8,0,0,6.6,40.6,13.6,45.2,7,4.6,19.6.5,19.6.5,0,0,9.9,4.1,13.4,8.7Z"/>
            <path class="st40" d="M659.8,1325.1c.2-.4,45.2-5.4,45.2-5.4,0,0-1.5,13.7,3.1,32.5s70.6,100.4,70.6,100.4l-6.9,21.9c21.4,7.5,42.5,8.6,63.2,3.8l-42.9-25.7s-40.1-136.8-64.7-161.2l-45.1-15.6-22.5,49.4Z"/>
            <path class="st42" d="M558.9,1245.5s-25.9,38.5-28,56.1,7.1,24.7,34.3,25.9,99.7,1.2,99.7,1.2l61.9-52.9s-45.1-16.1-56.9-20.7c-11.7-4.6-111.1-9.6-111.1-9.6Z"/>
            <path class="st44" d="M774.4,1467.1s-7.5,7.2-2.4,15.2c0,0,59,10.5,75.1,5.7,0,0-3.3-7.6-21.4-16.2l1.3,1c1.7,1.3.7,4-1.4,3.9-11.9-.7-36.5-2.9-51.2-9.6Z"/>
          </g>
          <g>
            <path class="st46" d="M629,1240.4s30.2-28.7,45-47.8c8-10.3,10.5-23.8,6.8-36.3-6.8-22.8-18.8-46.5-19.9-50.2-1.7-5.6-35.5-5.4-35.5-5.4,0,0-66.6,43.2-92.7,116.4l29.4,9.1s17.4-29.2,34.6-47.7c0,0-29.7,39.3-30.8,55.3l63.1,6.5Z"/>
            <path class="st43" d="M665,1074.6c-.4,1.2-9.2,30.4-9.9,31-.7.6-19.4,1.6-28.2-4.4l17.6-42,20.4,15.3Z"/>
            <path class="st45" d="M703,1050s5,16.5-5.7,39.6c-10.7,23.1-24.1,23.7-31.7,16.8-7.6-6.9-17.2-18.7-16.1-40.6,1.1-21.9,46.3-36.9,53.5-15.9Z"/>
            <path class="st47" d="M665.9,1066.3s18.2-30.8,37.6-8.1l.7,8.5s21.4-3.6,16.7-23.1c-4.7-19.5-28-35-51.5-25.4-23.5,9.7-32.7,23.1-33.4,40.3-.7,17.2,12.7,12.8,12.7,12.8,0,0,3.9-12.3,10.1-13.8,6.3-1.6,5.1,7.9,5.1,7.9l1.9.8Z"/>
            <path class="st41" d="M660.9,1066.1s9.4-15.8-1.1-17.6c-10.5-1.8-8.1,15.3-6.7,21.6l7.7-4.1Z"/>
            <path class="st15" d="M690.4,1242.5l-22.2-21.4-30.7,13s-30.5,4.7-48,0l-17.5-4.7-39.5-12.3-6.2,17.5c-1.6,4.4,0,9.4,3.9,12.1,3.4,2.4,7.4,5.1,10,6.2,5.2,2.3,128.1-1.6,128.1-1.6l22-8.8Z"/>
            <path class="st14" d="M673,1020.4c5.5.4,9-5.7,6.1-10.4-9.1-15.2-28.4-33.9-64.3-18.5-40.5,17.4-62,24.6-70.2,20.5-5.4-2.7-11.6,2-9.9,7.8,1.2,4.3,4.5,9.2,11.2,14.5,52.3,40.4,95-16.3,127.1-13.8Z"/>
          </g>
          <g>
            <path class="st16" d="M606.6,1252.6c0,0,.2,0,.3,0h128.6c3.2-.1,5.8-2.7,5.7-5.9,0-3.2-2.6-5.8-5.8-5.7h-128.6c-3.2.1-5.8,2.7-5.7,5.9,0,3.1,2.4,5.6,5.5,5.7Z"/>
            <path class="st20" d="M851,1135.9h-107.1c-7.9,0-15.1,4.6-18.5,11.7l-49.5,105h133.1c5.1,0,9.7-3.1,11.5-7.8l38.4-97.1c2.2-5.6-1.9-11.7-8-11.7Z"/>
            <path class="st69" d="M775.6,1189.7c-2.3,7.2-.6,14.2,3.8,15.6,4.4,1.4,9.9-3.3,12.2-10.5s.6-14.2-3.8-15.6c-4.4-1.4-9.9,3.3-12.2,10.5Z"/>
          </g>
          <g>
            <path class="st69" d="M426.9,1257.3c-.3-1.5.1-3,1.1-4.1s2.5-1.8,4.1-1.8h536.5c2.1,0,4,1,5.1,2.6s1.3,3.7.4,5.5l-5.8,11.8c-1.3,2.7-4.2,4.4-7.4,4.4H435.7c-3,0-5.5-2-6.1-4.7l-2.8-13.8Z"/>
            <g>
              <path class="st69" d="M938.5,1505.9c.6,0,1.3-.1,1.9-.4,2.4-1.1,3.5-3.9,2.5-6.3l-98.7-234.9c-1-2.4-3.8-3.6-6.2-2.5-2.4,1.1-3.5,3.9-2.5,6.3l98.7,234.9c.8,1.8,2.5,2.9,4.3,2.9Z"/>
              <path class="st69" d="M827.3,1505.9c1.8,0,3.6-1.1,4.3-2.9l98.7-234.9c1-2.4,0-5.3-2.5-6.3-2.4-1.1-5.2,0-6.2,2.5l-98.7,234.9c-1,2.4,0,5.3,2.5,6.3.6.3,1.2.4,1.9.4Z"/>
              <path class="st69" d="M549.7,1505.9c.6,0,1.3-.1,1.9-.4,2.4-1.1,3.5-3.9,2.5-6.3l-98.7-234.9c-1-2.4-3.8-3.6-6.2-2.5-2.4,1.1-3.5,3.9-2.5,6.3l98.7,234.9c.8,1.8,2.5,2.9,4.3,2.9Z"/>
              <path class="st69" d="M438.4,1505.9c1.8,0,3.6-1.1,4.3-2.9l98.7-234.9c1-2.4,0-5.3-2.5-6.3-2.4-1.1-5.2,0-6.2,2.5l-98.7,234.9c-1,2.4,0,5.3,2.5,6.3.6.3,1.2.4,1.9.4Z"/>
            </g>
          </g>
        </g>
      </g>
      <g>
        <g>
          <g>
            <path class="st75" d="M758,437c.4-.8,1.2-1.3,2.1-1.3,1.2,0,2.2,1.1,2.1,2.3-.1,2.9-.2,5.9-.2,8.9,0,1.2-1,2.2-2.3,2.2-1.2,0-2.2-1-2.2-2.3,0-3,.1-6,.2-9.1,0-.3,0-.6.2-.9Z"/>
            <path class="st75" d="M779.6,351.3c.4-.9.8-1.7,1.2-2.6.5-1.1,1.9-1.6,3-1,1.1.5,1.7,1.8,1,3-2.5,5.2-4.9,10.5-7,15.8-.5,1.1-1.8,1.7-2.9,1.3-1.1-.5-1.7-1.8-1.3-2.9,1.8-4.5,3.8-9.1,5.9-13.6ZM794.9,324.2c0,0,0-.2.2-.3,3.2-4.9,6.7-9.7,10.3-14.3.8-1,2.2-1.1,3.1-.4,1,.8,1.1,2.2.4,3.1-3.5,4.5-6.9,9.3-10.1,14-.7,1-2.1,1.3-3.1.6-.9-.6-1.3-1.8-.8-2.8ZM764.9,391.7c.5-1,1.5-1.5,2.6-1.2,1.2.3,1.9,1.5,1.6,2.7-1.4,5.6-2.7,11.2-3.7,16.9-.2,1.2-1.4,2-2.6,1.8-1.2-.2-2-1.4-1.8-2.6,1-5.8,2.3-11.6,3.8-17.2,0-.1,0-.3.1-.4ZM823.9,288.7c.1-.2.3-.4.4-.6,4.2-4.1,8.5-8.1,13-11.9.9-.8,2.4-.7,3.2.3.8.9.7,2.4-.3,3.2-4.4,3.7-8.7,7.6-12.8,11.7-.9.9-2.3.9-3.2,0-.7-.7-.8-1.7-.4-2.5ZM859.6,260c.2-.4.4-.7.8-.9,4.9-3.2,10-6.2,15.2-9,1.1-.6,2.4-.2,3,.9.6,1.1.2,2.4-.9,3-5.1,2.7-10.1,5.7-14.9,8.8-1,.7-2.4.4-3.1-.7-.4-.7-.5-1.5-.1-2.2ZM900.4,239.1c.2-.5.7-.9,1.2-1.1,5.5-2.1,11.1-4.1,16.7-5.8,1.2-.4,2.4.3,2.8,1.5.4,1.2-.3,2.4-1.5,2.8-5.5,1.7-11,3.6-16.3,5.6-1.2.5-2.5-.1-2.9-1.3-.2-.6-.2-1.2,0-1.8ZM944.5,227c.3-.6.9-1.1,1.7-1.2,5.8-1,11.7-1.7,17.5-2.2,1.2-.1,2.3.8,2.4,2,.1,1.2-.8,2.3-2,2.4-5.7.5-11.5,1.2-17.1,2.2-1.2.2-2.4-.6-2.6-1.8,0-.5,0-.9.2-1.3ZM990.2,224c.4-.8,1.2-1.3,2.1-1.3,5.8.2,11.8.7,17.6,1.4,1.2.1,2.1,1.3,2,2.5-.1,1.2-1.3,2.1-2.5,2-5.7-.7-11.5-1.1-17.2-1.4-1.2,0-2.2-1.1-2.2-2.3,0-.3,0-.6.2-.9ZM1035.5,230.5c.4-.9,1.5-1.5,2.6-1.2,5.7,1.4,11.4,3.1,16.9,4.9,1.2.4,1.8,1.7,1.4,2.8-.4,1.2-1.7,1.8-2.8,1.4-5.5-1.8-11-3.5-16.6-4.8-1.2-.3-1.9-1.5-1.6-2.7,0-.1,0-.3.2-.4ZM1078.6,246.1h0c.5-1.1,1.9-1.6,3-1.1,5.3,2.5,10.5,5.3,15.6,8.3,1.1.6,1.4,2,.8,3.1-.6,1.1-2,1.4-3.1.8-5-2.9-10.1-5.6-15.3-8.1-1.1-.5-1.6-1.9-1.1-3ZM1117.6,270c0-.1.1-.3.2-.4.8-1,2.2-1.2,3.1-.4,4.7,3.6,9.2,7.4,13.6,11.3.9.8,1,2.2.2,3.2-.8.9-2.2,1-3.2.2-4.3-3.8-8.7-7.6-13.3-11-.9-.7-1.1-1.8-.7-2.7Z"/>
            <path class="st75" d="M1151,301.6c.1-.3.3-.5.6-.7.9-.8,2.4-.7,3.2.2,2,2.3,3.9,4.6,5.8,7,.8,1,.6,2.4-.4,3.1-1,.8-2.4.6-3.2-.4-1.8-2.3-3.7-4.6-5.6-6.8-.6-.7-.7-1.6-.3-2.4Z"/>
          </g>
          <g>
            <path class="st75" d="M1204.3,468.2c.4-.8,1.3-1.4,2.2-1.3,1.2.1,2.1,1.2,2,2.4-.3,3-.6,6-1,9-.2,1.2-1.3,2.1-2.5,1.9-1.2-.2-2.1-1.3-1.9-2.5.4-2.9.7-5.9,1-8.8,0-.3,0-.5.2-.8Z"/>
            <path class="st75" d="M824.1,606.7c.1-.2.2-.4.4-.6.9-.9,2.3-.9,3.2,0,4,4,8.2,7.8,12.5,11.5.9.8,1.1,2.2.3,3.2-.8.9-2.2,1.1-3.2.3-4.4-3.7-8.7-7.7-12.8-11.7-.7-.7-.8-1.7-.4-2.6ZM859.1,635c0,0,0-.2.1-.3.7-1,2.1-1.3,3.1-.7,4.7,3.1,9.6,6,14.6,8.7,1.1.6,1.5,2,.9,3-.6,1.1-2,1.5-3,.9-5.1-2.8-10.1-5.8-14.9-8.9-1-.6-1.3-1.8-.8-2.8ZM899.2,655.7c.5-1.1,1.7-1.6,2.8-1.1,1,.4,2,.8,3.1,1.2,4.3,1.6,8.6,3.1,13,4.5,1.2.4,1.8,1.6,1.5,2.8-.4,1.2-1.6,1.8-2.8,1.5-4.4-1.4-8.9-2.9-13.2-4.6-1.1-.4-2.1-.8-3.1-1.2-1.2-.5-1.7-1.8-1.3-2.9,0,0,0,0,0-.1ZM942.5,668c.4-.9,1.4-1.4,2.4-1.2,5.6,1,11.2,1.8,16.9,2.3,1.2.1,2.1,1.2,2,2.5-.1,1.2-1.2,2.1-2.5,2-5.7-.6-11.5-1.4-17.2-2.4-1.2-.2-2-1.4-1.8-2.6,0-.2.1-.4.2-.6ZM987.4,671.3c.4-.7,1.1-1.3,2-1.3,5.6-.2,11.4-.5,17-1.1,1.2-.1,2.3.8,2.5,2,.1,1.2-.8,2.3-2,2.5-5.7.6-11.6,1-17.3,1.1-1.2,0-2.3-.9-2.3-2.2,0-.4,0-.7.2-1ZM1032.1,665.6c.3-.6.8-1.1,1.5-1.2,5.5-1.3,11-2.8,16.4-4.5,1.2-.4,2.4.3,2.8,1.5.4,1.2-.3,2.4-1.5,2.8-5.5,1.7-11.1,3.3-16.7,4.6-1.2.3-2.4-.5-2.7-1.7-.1-.5,0-1,.2-1.5ZM1074.7,651c.2-.5.6-.8,1.1-1.1,5.1-2.4,10.3-4.9,15.2-7.7,1.1-.6,2.4-.2,3,.9.6,1.1.2,2.4-.9,3-5,2.8-10.3,5.4-15.5,7.8-1.1.5-2.5,0-3-1.1-.3-.6-.3-1.3,0-1.9ZM1113.6,628.2c.2-.3.4-.6.7-.8,4.6-3.3,9.1-6.9,13.4-10.6.9-.8,2.4-.7,3.2.2.8.9.7,2.4-.2,3.2-4.4,3.8-9,7.4-13.6,10.8-1,.7-2.4.5-3.1-.5-.5-.7-.6-1.6-.2-2.3ZM1147.2,598.1c0-.2.2-.4.4-.5,3.8-4.2,7.5-8.6,11-13,.8-1,2.2-1.2,3.1-.4,1,.8,1.1,2.2.4,3.1-3.5,4.5-7.3,9-11.2,13.3-.8.9-2.2,1-3.2.2-.8-.7-.9-1.8-.5-2.6ZM1197.9,504.5c.5-1,1.5-1.5,2.6-1.2,1.2.3,1.9,1.5,1.6,2.7-1.5,5.6-3.2,11.2-5.1,16.6-.4,1.2-1.7,1.8-2.9,1.4-1.2-.4-1.8-1.7-1.4-2.9,1.9-5.3,3.5-10.8,5-16.3,0-.1,0-.3.1-.4ZM1173.9,561.8c0,0,0-.1,0-.2,2.9-4.8,5.6-9.9,8.1-15,.5-1.1,1.9-1.6,3-1,1.1.5,1.5,1.9,1,3-2.6,5.2-5.3,10.3-8.3,15.3-.6,1.1-2,1.4-3.1.8-1-.6-1.4-1.9-.9-2.9Z"/>
            <path class="st75" d="M800,578.5c.2-.3.4-.6.7-.9,1-.7,2.4-.5,3.1.5,1.7,2.4,3.5,4.8,5.3,7.1.8,1,.6,2.4-.4,3.1-1,.8-2.4.6-3.1-.4-1.8-2.4-3.7-4.8-5.4-7.2-.5-.7-.5-1.6-.2-2.3Z"/>
          </g>
          <g>
            <path class="st75" d="M832.6,530.8c.4,1.1,1.5,1.7,2.6,1.7l32.6-1.9c8.9,12.4,19.8,23.5,32.6,32.7l-2,32.6c0,1.1.6,2.2,1.7,2.6l36.2,15c1.1.4,2.3.2,3-.7l21.7-24.4c15.5,2.6,31.1,2.5,46.1,0l21.6,24.5c.8.9,2,1.1,3,.7l36.2-15c1.1-.4,1.7-1.5,1.7-2.6l-1.9-32.6c12.4-8.9,23.5-19.8,32.7-32.6l32.6,2c1.1,0,2.2-.6,2.6-1.6l15-36.2c.4-1.1.2-2.3-.7-3l-24.4-21.7c2.6-15.5,2.5-31.1,0-46.1l24.5-21.6c.9-.8,1.1-2,.7-3l-15-36.2c-.4-1.1-1.5-1.7-2.6-1.7l-32.6,1.9c-8.9-12.4-19.8-23.5-32.6-32.7l2-32.6c0-1.1-.6-2.2-1.6-2.6l-36.2-15c-1.1-.4-2.3-.2-3,.7l-21.7,24.4c-15.5-2.6-31.1-2.5-46.1,0l-21.6-24.5c-.8-.9-2-1.1-3-.7l-36.2,15c-1.1.4-1.7,1.5-1.7,2.6l1.9,32.6c-12.4,8.9-23.5,19.8-32.7,32.6l-32.6-2c-1.1,0-2.2.6-2.6,1.6l-15,36.2c-.4,1.1-.2,2.3.7,3l24.4,21.7c-2.6,15.5-2.5,31.1,0,46.1l-24.5,21.6c-.9.8-1.1,2-.7,3l15,36.2Z"/>
            <path class="st19" d="M949.7,430.5c2.6-5.6,6.6-10.4,11.7-14.2,8.2-6.1,18.2-8.6,28.3-7.1,20.8,3.1,35.3,22.5,32.2,43.3-3.1,20.8-22.5,35.3-43.3,32.2-10.1-1.5-19-6.8-25.1-15-6.1-8.2-8.6-18.2-7.1-28.3.6-3.8,1.7-7.5,3.3-10.9ZM1012.6,460.4c1.3-2.7,2.2-5.7,2.7-8.9,2.5-17.2-9.4-33.2-26.5-35.7-8.3-1.2-16.6.9-23.3,5.9-6.7,5-11.1,12.3-12.4,20.7-1.2,8.3.9,16.6,5.9,23.3,5,6.7,12.3,11.1,20.7,12.4,14,2.1,27.2-5.5,33-17.6Z"/>
            <path class="st17" d="M896.5,404.4c22.2-46.8,77.7-68.4,126-48.3,1.5.6,3,1.3,4.5,2,46.8,22.2,68.4,77.7,48.3,126-10,24.1-28.9,43-53.1,53-24.2,10-50.8,10-75,0-1.5-.6-3-1.3-4.5-2-4.8-2.3-9.4-5-13.8-8l3.8-5.5c4,2.8,8.3,5.3,12.8,7.4,1.4.7,2.8,1.3,4.2,1.9h0c46.5,19.3,99.9-2.8,119.3-49.2,18.7-45-1.5-96.7-45-117.4-1.4-.7-2.8-1.3-4.2-1.9-46.5-19.3-99.9,2.8-119.3,49.2-6.3,15.3-8.4,31.9-6,48.2l-6.7,1c-2.6-17.5-.3-35.4,6.5-51.8.6-1.5,1.3-3,2-4.5Z"/>
          </g>
        </g>
        <path class="st75" d="M1181.5,399l18.1-2.5c5.5,6.5,12.1,12.2,19.6,16.8l.3,18.3c0,.6.4,1.2,1,1.4l20.9,6.8c.6.2,1.3,0,1.7-.5l11-14.6c8.8.7,17.5,0,25.8-2l13.2,12.7c.5.4,1.2.5,1.7.3l19.6-10c.6-.3.9-.9.8-1.5l-2.5-18.1c6.5-5.5,12.2-12.1,16.8-19.6l18.3-.3c.6,0,1.2-.4,1.4-1l6.8-20.9c.2-.6,0-1.3-.5-1.7l-14.6-11c.7-8.8,0-17.5-2-25.8l12.7-13.2c.4-.5.5-1.2.3-1.7l-10-19.6c-.3-.6-.9-.9-1.5-.8l-18.1,2.5c-5.5-6.5-12.1-12.2-19.6-16.8l-.3-18.3c0-.6-.4-1.2-1-1.4l-20.9-6.8c-.6-.2-1.3,0-1.7.5l-11,14.6c-8.8-.7-17.5,0-25.8,2l-13.2-12.7c-.5-.4-1.2-.5-1.7-.3l-19.6,10c-.6.3-.9.9-.8,1.5l2.5,18.1c-6.5,5.5-12.2,12.1-16.8,19.6l-18.3.3c-.6,0-1.2.4-1.4,1l-6.8,20.9c-.2.6,0,1.3.5,1.7l14.6,11c-.7,8.8,0,17.5,2,25.8l-12.7,13.2c-.4.5-.6,1.2-.3,1.7l10,19.6c.3.6.9.9,1.5.8Z"/>
        <path class="st21" d="M1240.3,334.8c3.9-8.2,12.6-13.7,22.2-13,6.1.4,11.7,3.2,15.7,7.8,4,4.6,6,10.5,5.6,16.6-.4,6.1-3.2,11.7-7.8,15.7-4.6,4-10.5,6-16.6,5.6h0c-12.6-.8-22.1-11.8-21.3-24.4.2-3,1-5.7,2.2-8.3ZM1275.5,351.5c.9-1.8,1.4-3.8,1.5-5.9.3-4.3-1.1-8.5-3.9-11.7-2.8-3.2-6.8-5.2-11.1-5.5-8.9-.6-16.6,6.1-17.2,15-.6,8.9,6.1,16.6,15,17.2,4.3.3,8.5-1.1,11.7-4,1.7-1.5,3-3.2,4-5.2Z"/>
        <g>
          <path class="st75" d="M1143.7,368.3c.3-.6.8-1.1,1.6-1.2,1.2-.3,2.4.5,2.7,1.7.6,2.9,1.3,5.7,2.2,8.5.4,1.2-.3,2.4-1.5,2.8-1.2.4-2.4-.3-2.8-1.5-.9-2.9-1.6-5.9-2.3-8.9-.1-.5,0-1,.2-1.4Z"/>
          <path class="st75" d="M1153.1,291.9s0,0,0,0c2.7-5.6,6-11,9.5-16.2.7-1,2.1-1.3,3.1-.5,1,.7,1.2,2.1.5,3.1-3.5,4.9-6.6,10.2-9.2,15.6-.5,1.1-1.9,1.6-3,1-1.1-.5-1.6-1.9-1-3ZM1143.5,320.2c.4-.9,1.4-1.4,2.5-1.2,1.2.2,2,1.4,1.8,2.6-1,5-1.7,10.1-2,15.2,0,.9-.1,1.8-.2,2.8,0,1.2-1.1,2.2-2.3,2.1-1.2,0-2.2-1.1-2.1-2.3,0-.9,0-1.9.2-2.8.4-5.3,1.1-10.6,2.1-15.8,0-.2,0-.4.2-.5ZM1182.6,254c.1-.3.3-.5.6-.7,4.8-4,9.9-7.8,15.2-11,1.1-.6,2.4-.3,3.1.7.6,1.1.3,2.4-.7,3.1-5.1,3.1-10.1,6.7-14.6,10.6-.9.8-2.4.7-3.2-.3-.6-.7-.7-1.6-.3-2.4ZM1224.7,230.9c.3-.6.7-1,1.4-1.2,6-1.8,12.1-3.2,18.3-4,1.2-.2,2.4.7,2.5,1.9.2,1.2-.7,2.4-1.9,2.5-6,.8-11.9,2.1-17.6,3.9-1.2.4-2.4-.3-2.8-1.5-.2-.6-.1-1.1.1-1.6ZM1272.6,226.7c.4-.8,1.3-1.4,2.3-1.3,6.2.7,12.4,1.9,18.4,3.6,1.2.3,1.9,1.6,1.6,2.8-.3,1.2-1.6,1.9-2.8,1.6-5.8-1.6-11.7-2.8-17.7-3.5-1.2-.1-2.1-1.3-2-2.5,0-.3,0-.5.2-.7Z"/>
          <path class="st75" d="M1318.3,241.9c0,0,0-.1,0-.2.6-1.1,2-1.4,3.1-.8,2.6,1.5,5.2,3.2,7.7,4.9,1,.7,1.3,2.1.6,3.1-.7,1-2.1,1.3-3.1.6-2.4-1.7-4.9-3.3-7.4-4.7-1-.6-1.4-1.9-.9-2.9Z"/>
        </g>
        <g>
          <path class="st75" d="M1374.3,319.9c.3-.6.9-1.1,1.6-1.2,1.2-.2,2.4.5,2.6,1.7.6,3,1.1,6,1.5,9,.2,1.2-.7,2.3-1.9,2.5-1.2.2-2.4-.7-2.5-1.9-.4-2.9-.8-5.8-1.4-8.7-.1-.5,0-1,.2-1.4Z"/>
          <path class="st75" d="M1221.4,455.3c.5-1,1.6-1.5,2.7-1.2,5.6,1.9,11.4,3.3,17.2,4.3,1.2.2,2,1.4,1.8,2.6-.2,1.2-1.4,2-2.6,1.8-6.1-1-12.1-2.5-17.9-4.5-1.2-.4-1.8-1.7-1.4-2.8,0,0,0-.2.1-.3ZM1268.4,461c.3-.7,1-1.2,1.8-1.3,5.9-.5,11.8-1.4,17.6-2.8,1.2-.3,2.4.5,2.7,1.7.3,1.2-.5,2.4-1.7,2.7-6,1.4-12.1,2.4-18.2,2.9-1.2,0-2.3-.8-2.4-2.1,0-.4,0-.8.2-1.1ZM1313.7,447.8c.2-.4.5-.8,1-1,5.2-2.8,10.3-5.9,15-9.5,1-.7,2.4-.5,3.1.5.7,1,.5,2.4-.5,3.1-4.9,3.7-10.2,7-15.6,9.8-1.1.6-2.5.2-3-.9-.3-.7-.3-1.4,0-2ZM1375.8,358.2c.4-.8,1.3-1.4,2.3-1.3,1.2.2,2.1,1.3,2,2.5-.8,6.1-2,12.2-3.7,18.1-.4,1.2-1.6,1.9-2.8,1.5-1.2-.3-1.9-1.6-1.5-2.8,1.6-5.7,2.8-11.5,3.5-17.4,0-.2,0-.5.2-.7ZM1350.3,417.9c0-.2.2-.3.3-.5,3.7-4.6,7.1-9.5,10.1-14.6.6-1.1,2-1.4,3.1-.8,1.1.6,1.4,2,.8,3.1-3.1,5.3-6.6,10.4-10.5,15.2-.8,1-2.2,1.1-3.2.3-.8-.7-1-1.8-.6-2.7Z"/>
          <path class="st75" d="M1187.5,437.3c0-.1.1-.3.2-.4.8-1,2.2-1.2,3.1-.4,2.3,1.8,4.7,3.5,7.2,5.1,1,.7,1.3,2.1.7,3.1-.7,1-2.1,1.3-3.1.7-2.5-1.6-5-3.4-7.5-5.3-.9-.7-1.1-1.8-.7-2.7Z"/>
        </g>
        <path class="st18" d="M1210.4,320.1c12-25.2,41.1-38.2,68.3-29.4,2.4.8,4.6,1.7,6.8,2.7,25.2,12,38.2,41.1,29.3,68.3-4.7,14.3-14.6,26-28,32.8-13.4,6.8-28.7,8-43,3.4-3.6-1.2-7.1-2.7-10.4-4.6-.2-.1-.4-.2-.6-.3l3.4-5.8c1.2.7,2.4,1.3,3.6,1.9,1.9.9,4,1.7,6,2.4,12.6,4.1,26.1,3,37.9-3,11.8-6,20.6-16.3,24.7-28.9,4.1-12.6,3-26.1-3-37.9-5-9.9-13-17.6-22.8-22.3-1.9-.9-4-1.7-6.1-2.4-12.6-4.1-26.1-3-37.9,3-11.8,6-20.6,16.3-24.7,28.9-2.8,8.6-3.2,17.7-1.2,26.4l-6.6,1.5c-2.3-9.9-1.8-20.3,1.4-30,.8-2.4,1.7-4.6,2.7-6.8Z"/>
      </g>
      <g>
        <g>
          <g>
            <path class="st74" d="M2317.9,1436.6s87.3-201.6,21.2-414.1c-.4-1.4-2.9-1.1-3.1.3-15.9,128.5-20.7,267.6-18.1,413.8Z"/>
            <path class="st75" d="M2318.3,1432.4c-.1,0-.2,0-.3,0-.6-.2-.9-.8-.8-1.4,15.4-54.8,21.3-148.1,23.5-216.7,2.4-74.4,1.1-136.6,1.1-137.2,0-.6.5-1.1,1.1-1.1h0c.6,0,1.1.5,1.1,1.1,0,.6,1.3,62.9-1.1,137.3-2.2,68.7-8.1,162.2-23.6,217.2-.1.5-.6.8-1.1.8Z"/>
          </g>
          <g>
            <path class="st74" d="M2297.9,1403.8s53.9-247.4-48-497.8c-.7-1.6-3.1-1.2-3,.6,5.5,155.1,24,322.2,51,497.2Z"/>
            <path class="st75" d="M2297.4,1398.4s0,0-.1,0c-.6,0-1.1-.6-1-1.2,12.1-127.7-34-423-34.5-426,0-.6.3-1.2.9-1.3.6-.1,1.2.3,1.3.9.5,3,46.6,298.5,34.5,426.5,0,.6-.5,1-1.1,1Z"/>
          </g>
          <g>
            <path class="st74" d="M2289.4,1470.9s25.8-215.8-102.5-410.1c-.8-1.3-3.2-.5-2.9,1,22.6,129.2,59.4,266.5,105.4,409.1Z"/>
            <path class="st75" d="M2288.1,1466.7c-.6,0-1.1-.5-1.1-1.1-1.1-56.9-23.2-149.5-41.4-217.2-19.8-73.4-39.6-134-39.8-134.6-.2-.6.1-1.2.7-1.4.6-.2,1.2.1,1.4.7.2.6,20,61.3,39.8,134.7,18.3,67.8,40.4,160.6,41.5,217.7,0,.6-.5,1.1-1.1,1.1h0Z"/>
          </g>
        </g>
        <path class="st76" d="M2354.9,1351.4h-118.6c-8.9,0-15.5,8.4-13.9,17.1,7.1,37.5,21.4,70.6,36.3,98.3,3.3,6.2,9.8,10.1,16.8,10.1h38.7c7.1,0,13.7-3.9,17.1-10.1,18.6-33.9,27.7-67.5,35.3-100.4,1.7-7.6-4-15.1-11.8-15.1Z"/>
      </g>
    </g>
  </g>
</svg>