<svg width="118" height="113" viewBox="0 0 118 113" fill="none" xmlns="http://www.w3.org/2000/svg">
<g filter="url(#filter0_d_2410_8)">
<path d="M111 52.059C111 80.7778 87.7188 104.059 59 104.059C30.2812 104.059 7 80.7778 7 52.059C7 23.3402 30.2812 0.0590363 59 0.0590363C87.7188 0.0590363 111 23.3402 111 52.059Z" fill="#D52027"/>
<path d="M110.5 52.059C110.5 80.5017 87.4427 103.559 59 103.559C30.5573 103.559 7.5 80.5017 7.5 52.059C7.5 23.6164 30.5573 0.559036 59 0.559036C87.4427 0.559036 110.5 23.6164 110.5 52.059Z" stroke="black"/>
</g>
<g filter="url(#filter1_d_2410_8)">
<path d="M70 34H105.307L96.2084 49.5H84.5L87.5 44H78L70 57.5H91.5L59 112.5L40 80H54.5L59 88.5L71.5 68H50.5L70 34Z" fill="white"/>
<path d="M95.9221 49H85.3423L87.9389 44.2394L88.3423 43.5H87.5H78H77.7151L77.5699 43.7451L69.5699 57.2451L69.1225 58H70H90.6238L59.0023 111.513L40.8715 80.5H54.199L58.5581 88.7339L58.9693 89.5107L59.4269 88.7603L71.9269 68.2603L72.3905 67.5H71.5H51.3632L70.2896 34.5H104.434L95.9221 49Z" stroke="#1E4558"/>
</g>
<g filter="url(#filter2_d_2410_8)">
<path d="M3.85791 18.5H114.5L106.5 31.9978H68.8202L48.0001 68H32.7205L53.3936 31.9978H27.2465L32.7205 41.4963L17.2939 41.9962L3.85791 18.5Z" fill="white"/>
<path d="M47.7117 67.5H33.5841L53.8272 32.2468L54.2573 31.4978H53.3936H27.2465H26.3813L26.8133 32.2475L31.8709 41.0236L17.5786 41.4868L4.71981 19H113.623L106.215 31.4978H68.8202H68.5317L68.3873 31.7475L47.7117 67.5Z" stroke="#1E4558"/>
</g>
<defs>
<filter id="filter0_d_2410_8" x="3" y="0.0590363" width="112" height="112" filterUnits="userSpaceOnUse" color-interpolation-filters="sRGB">
<feFlood flood-opacity="0" result="BackgroundImageFix"/>
<feColorMatrix in="SourceAlpha" type="matrix" values="0 0 0 0 0 0 0 0 0 0 0 0 0 0 0 0 0 0 127 0" result="hardAlpha"/>
<feOffset dy="4"/>
<feGaussianBlur stdDeviation="2"/>
<feComposite in2="hardAlpha" operator="out"/>
<feColorMatrix type="matrix" values="0 0 0 0 0 0 0 0 0 0 0 0 0 0 0 0 0 0 0.25 0"/>
<feBlend mode="normal" in2="BackgroundImageFix" result="effect1_dropShadow_2410_8"/>
<feBlend mode="normal" in="SourceGraphic" in2="effect1_dropShadow_2410_8" result="shape"/>
</filter>
<filter id="filter1_d_2410_8" x="36" y="34" width="73.3074" height="86.5" filterUnits="userSpaceOnUse" color-interpolation-filters="sRGB">
<feFlood flood-opacity="0" result="BackgroundImageFix"/>
<feColorMatrix in="SourceAlpha" type="matrix" values="0 0 0 0 0 0 0 0 0 0 0 0 0 0 0 0 0 0 127 0" result="hardAlpha"/>
<feOffset dy="4"/>
<feGaussianBlur stdDeviation="2"/>
<feComposite in2="hardAlpha" operator="out"/>
<feColorMatrix type="matrix" values="0 0 0 0 0 0 0 0 0 0 0 0 0 0 0 0 0 0 0.25 0"/>
<feBlend mode="normal" in2="BackgroundImageFix" result="effect1_dropShadow_2410_8"/>
<feBlend mode="normal" in="SourceGraphic" in2="effect1_dropShadow_2410_8" result="shape"/>
</filter>
<filter id="filter2_d_2410_8" x="0.85791" y="17.5" width="116.642" height="55.5" filterUnits="userSpaceOnUse" color-interpolation-filters="sRGB">
<feFlood flood-opacity="0" result="BackgroundImageFix"/>
<feColorMatrix in="SourceAlpha" type="matrix" values="0 0 0 0 0 0 0 0 0 0 0 0 0 0 0 0 0 0 127 0" result="hardAlpha"/>
<feOffset dy="2"/>
<feGaussianBlur stdDeviation="1.5"/>
<feComposite in2="hardAlpha" operator="out"/>
<feColorMatrix type="matrix" values="0 0 0 0 0 0 0 0 0 0 0 0 0 0 0 0 0 0 0.25 0"/>
<feBlend mode="normal" in2="BackgroundImageFix" result="effect1_dropShadow_2410_8"/>
<feBlend mode="normal" in="SourceGraphic" in2="effect1_dropShadow_2410_8" result="shape"/>
</filter>
</defs>
</svg>
