<svg width="100%" height="100%" id="svg" viewBox="0 0 1440 490" xmlns="http://www.w3.org/2000/svg" class="transition duration-300 ease-in-out delay-150"><defs><linearGradient id="gradient" x1="48%" y1="0%" x2="52%" y2="100%"><stop offset="5%" stop-color="#f78da7"></stop><stop offset="95%" stop-color="#eb144c"></stop></linearGradient></defs><path d="M 0,500 L 0,93 C 35.20034529535084,118.8635096806018 70.40069059070169,144.7270193612036 131,136 C 191.59930940929831,127.2729806387964 277.59758293254407,83.9554322357874 343,84 C 408.40241706745593,84.0445677642126 453.208977679122,127.45125169564682 497,138 C 540.791022320878,148.54874830435318 583.566506350968,126.23956098162535 638,124 C 692.433493649032,121.76043901837465 758.5249969170059,139.59050437785177 809,124 C 859.4750030829941,108.40949562214823 894.3335059810086,59.39842150696755 947,64 C 999.6664940189914,68.60157849303245 1070.1409791589595,126.81580959427797 1127,137 C 1183.8590208410405,147.18419040572203 1227.1025773831543,109.33834011592057 1277,94 C 1326.8974226168457,78.66165988407943 1383.4487113084228,85.83082994203971 1440,93 L 1440,500 L 0,500 Z" stroke="none" stroke-width="0" fill="url(#gradient)" fill-opacity="0.4" class="transition-all duration-300 ease-in-out delay-150 path-0"></path><defs><linearGradient id="gradient" x1="48%" y1="0%" x2="52%" y2="100%"><stop offset="5%" stop-color="#f78da7"></stop><stop offset="95%" stop-color="#eb144c"></stop></linearGradient></defs><path d="M 0,500 L 0,218 C 49.01812800591935,210.42939943272907 98.0362560118387,202.85879886545814 153,201 C 207.9637439881613,199.14120113454186 268.87310395856457,202.99420397089654 321,200 C 373.12689604143543,197.00579602910346 416.4713281539031,187.16438525095575 477,182 C 537.5286718460969,176.83561474904425 615.2415834258231,176.34825502528057 663,195 C 710.7584165741769,213.65174497471943 728.5623381428045,251.44259464792205 776,249 C 823.4376618571955,246.55740535207795 900.5090640029596,203.8813663830312 964,197 C 1027.4909359970404,190.1186336169688 1077.4014058453572,219.03193981995315 1125,221 C 1172.5985941546428,222.96806018004685 1217.8853126156123,197.99087433715624 1270,193 C 1322.1146873843877,188.00912566284376 1381.0573436921939,203.00456283142188 1440,218 L 1440,500 L 0,500 Z" stroke="none" stroke-width="0" fill="url(#gradient)" fill-opacity="0.53" class="transition-all duration-300 ease-in-out delay-150 path-1"></path><defs><linearGradient id="gradient" x1="48%" y1="0%" x2="52%" y2="100%"><stop offset="5%" stop-color="#f78da7"></stop><stop offset="95%" stop-color="#eb144c"></stop></linearGradient></defs><path d="M 0,500 L 0,343 C 35.272364039955605,341.43324700949563 70.54472807991121,339.8664940189912 133,327 C 195.4552719200888,314.1335059810088 285.0934517203108,289.96727093353064 340,302 C 394.9065482796892,314.03272906646936 415.08146503884564,362.2644222468862 456,368 C 496.91853496115436,373.7355777531138 558.5806881243064,336.9750400789246 621,330 C 683.4193118756936,323.0249599210754 746.595782463929,345.83541743741523 806,342 C 865.404217536071,338.16458256258477 921.0361820199778,307.6832901714145 981,317 C 1040.9638179800222,326.3167098285855 1105.25948945616,375.4314218769269 1149,384 C 1192.74051054384,392.5685781230731 1215.9258601553827,360.59102232087804 1261,347 C 1306.0741398446173,333.40897767912196 1373.0370699223085,338.204488839561 1440,343 L 1440,500 L 0,500 Z" stroke="none" stroke-width="0" fill="url(#gradient)" fill-opacity="1" class="transition-all duration-300 ease-in-out delay-150 path-2"></path></svg>